<?xml version="1.0" standalone="no"?>
<!DOCTYPE svg PUBLIC "-//W3C//DTD SVG 20010904//EN"
 "http://www.w3.org/TR/2001/REC-SVG-20010904/DTD/svg10.dtd">
<svg version="1.0" xmlns="http://www.w3.org/2000/svg"
 width="1283.000000pt" height="1283.000000pt" viewBox="0 0 1283.000000 1283.000000"
 preserveAspectRatio="xMidYMid meet">
<metadata>
Created by potrace 1.11, written by Peter Selinger 2001-2013
</metadata>
<g transform="translate(0.000000,1283.000000) scale(0.100000,-0.100000)"
fill="#000000" stroke="none">
<path d="M3016 12817 c-21 -16 -56 -135 -56 -193 0 -44 10 -54 54 -54 33 0 52
27 70 96 22 86 21 141 -3 154 -26 13 -43 13 -65 -3z"/>
<path d="M2457 12722 c-30 -33 -17 -73 54 -169 35 -46 44 -53 75 -53 27 0 37
5 46 26 10 22 8 33 -18 80 -62 118 -118 159 -157 116z"/>
<path d="M2748 12491 c-70 -23 -119 -52 -181 -110 -97 -91 -142 -212 -135
-367 3 -82 8 -100 42 -170 23 -45 59 -98 86 -124 55 -56 172 -116 255 -131 33
-6 70 -16 82 -21 29 -14 43 -57 43 -135 0 -56 4 -69 30 -102 17 -20 40 -57 53
-81 27 -54 61 -80 115 -87 34 -5 51 0 108 32 117 66 302 194 324 226 36 49 23
124 -30 184 -10 11 -26 40 -36 64 -15 38 -24 47 -79 71 -34 15 -72 41 -84 56
-24 31 -24 34 5 143 16 57 16 76 6 160 -16 122 -52 203 -124 274 -62 62 -131
103 -208 123 -75 19 -202 17 -272 -5z m291 -130 c66 -34 137 -107 167 -169 40
-85 42 -157 8 -270 l-27 -93 22 -52 c34 -78 35 -84 13 -96 -18 -9 -24 -5 -50
37 -68 107 -82 144 -71 185 33 119 -86 213 -206 163 -101 -42 -98 -216 4 -255
17 -6 44 -16 59 -21 43 -16 131 -161 119 -194 -10 -27 -24 -19 -71 43 l-45 58
-80 7 c-135 12 -242 82 -302 198 -19 36 -23 58 -23 133 0 132 13 167 92 245
89 89 144 111 262 107 64 -3 96 -9 129 -26z"/>
<path d="M3417 12468 c-85 -46 -110 -73 -102 -106 9 -37 23 -52 49 -52 27 0
109 48 161 93 36 32 39 37 30 63 -15 42 -63 43 -138 2z"/>
<path d="M2152 12278 c-26 -13 -39 -54 -25 -77 16 -26 56 -41 142 -53 93 -14
111 -6 111 48 0 24 -6 37 -21 45 -17 9 -175 51 -182 48 -1 0 -12 -5 -25 -11z"/>
<path d="M2314 11780 c-96 -57 -120 -92 -94 -141 6 -10 20 -19 31 -19 28 0
124 52 174 94 36 31 39 36 30 62 -15 43 -73 44 -141 4z"/>
<path d="M4048 10994 c-178 -32 -356 -105 -518 -212 -98 -65 -265 -227 -332
-322 -238 -339 -304 -772 -177 -1163 72 -222 215 -444 372 -577 138 -118 333
-225 512 -283 l100 -32 265 0 265 0 110 39 c223 78 375 168 518 305 683 657
489 1761 -378 2153 -207 93 -516 132 -737 92z"/>
<path d="M10957 10659 c-94 -15 -140 -95 -167 -286 -1 -8 -533 -1 -553 6 -19
8 -30 26 -51 91 -38 119 -78 162 -170 184 -52 13 -137 -12 -177 -53 -40 -40
-79 -132 -79 -186 l0 -35 -290 0 -290 0 0 24 c0 52 -40 154 -78 196 -34 38
-42 42 -98 47 -98 9 -150 -3 -196 -45 -49 -44 -77 -98 -85 -163 l-6 -49 -71 0
c-126 0 -209 -32 -286 -109 -38 -39 -48 -56 -59 -106 -17 -83 -30 -886 -30
-1960 -1 -953 -3 -920 58 -1052 35 -73 89 -130 156 -163 l50 -24 575 -7 c316
-4 976 -5 1465 -2 l890 5 56 25 c68 30 110 71 141 138 l23 50 -3 545 c-2 300
1 883 8 1295 12 792 7 1034 -26 1127 -21 64 -94 143 -163 177 -31 16 -100 38
-154 51 -83 18 -98 25 -101 43 -13 61 -18 76 -46 124 -16 28 -45 64 -64 78
-39 30 -117 45 -179 34z m-1969 -171 c22 -28 34 -108 34 -234 0 -110 -4 -140
-20 -177 -23 -51 -34 -61 -62 -52 -33 11 -49 57 -60 177 -14 149 -2 243 35
276 29 25 57 28 73 10z m1031 -29 c22 -38 23 -49 20 -183 -3 -116 -8 -147 -22
-170 -25 -38 -57 -32 -80 16 -23 48 -33 193 -18 272 21 111 60 136 100 65z
m1030 17 c13 -13 27 -41 32 -63 29 -124 -16 -341 -68 -331 -9 2 -25 15 -36 29
-17 24 -19 43 -19 165 0 165 12 224 46 224 12 0 33 -11 45 -24z m-2326 -323
c3 -49 14 -110 24 -138 34 -93 120 -155 217 -155 114 0 194 106 213 282 l8 73
285 0 285 0 8 -65 c11 -95 51 -169 107 -200 61 -34 183 -36 227 -4 37 27 77
102 92 172 7 32 15 65 17 75 5 16 28 17 300 17 l294 0 0 -53 c0 -71 46 -164
102 -209 34 -27 52 -33 103 -36 72 -5 111 11 148 60 48 64 66 109 92 232 6 27
7 28 53 21 80 -11 121 -27 162 -62 56 -48 76 -119 85 -304 l8 -146 -78 -6
c-102 -9 -2270 -9 -2709 0 l-339 6 5 191 c6 224 18 270 82 300 42 20 104 33
162 35 l41 1 6 -87z m2811 -614 c10 -10 -13 -2280 -24 -2324 -13 -56 -37 -72
-128 -82 -42 -4 -675 -8 -1407 -8 -1417 0 -1418 0 -1463 48 -12 12 -33 49 -49
82 l-28 60 -3 610 c-2 336 0 836 3 1112 l7 502 42 3 c80 6 3044 3 3050 -3z"/>
<path d="M8800 9231 c-45 -13 -50 -39 -50 -282 l0 -227 33 -13 c22 -9 67 -13
147 -11 128 3 307 18 332 27 25 10 28 35 35 255 5 196 5 206 -15 230 l-20 25
-219 2 c-120 1 -229 -1 -243 -6z m345 -228 c-11 -135 -8 -130 -71 -137 -30 -3
-79 -9 -109 -12 l-55 -6 0 116 0 116 121 0 121 0 -7 -77z"/>
<path d="M9425 9231 c-48 -20 -50 -31 -53 -272 l-3 -228 26 -17 c22 -15 48
-17 158 -15 180 3 328 18 345 35 18 18 38 303 28 398 -12 108 1 103 -258 105
-123 2 -232 -1 -243 -6z m345 -238 c0 -49 -4 -94 -9 -101 -10 -16 -60 -28
-158 -37 l-73 -7 0 116 0 116 120 0 120 0 0 -87z"/>
<path d="M10050 9231 c-45 -12 -50 -39 -50 -282 l0 -227 33 -13 c33 -14 98
-15 312 -3 148 8 182 17 189 52 7 30 25 371 20 387 -1 6 -5 23 -9 38 -10 49
-48 57 -272 56 -109 -1 -209 -4 -223 -8z m350 -256 c0 -76 -4 -107 -12 -110
-7 -2 -61 -6 -120 -8 l-108 -5 0 114 0 114 120 0 120 0 0 -105z"/>
<path d="M10699 9223 c-68 -8 -74 -23 -77 -221 -2 -97 -1 -200 3 -228 11 -92
1 -88 267 -95 128 -3 239 -3 246 -1 25 9 30 48 38 249 8 226 3 270 -29 282
-25 9 -392 21 -448 14z m321 -263 l0 -110 -37 0 c-21 0 -75 -3 -120 -7 l-83
-6 0 117 0 116 120 0 120 0 0 -110z"/>
<path d="M8792 8590 c-12 -5 -27 -21 -32 -35 -15 -40 -13 -434 3 -465 l13 -25
209 1 c231 2 289 11 299 47 4 12 9 115 13 228 l6 207 -26 26 -26 26 -218 -1
c-120 0 -228 -4 -241 -9z m354 -217 c-4 -38 -9 -85 -12 -105 l-5 -36 -77 -7
c-42 -3 -92 -8 -109 -11 l-33 -5 0 116 0 115 121 0 121 0 -6 -67z"/>
<path d="M9413 8588 c-35 -17 -43 -67 -43 -253 1 -180 9 -252 31 -266 18 -11
255 -11 383 1 63 5 104 14 113 23 18 18 40 324 29 410 -13 98 -9 97 -268 96
-138 0 -232 -4 -245 -11z m357 -235 c0 -49 -4 -94 -8 -100 -8 -13 -72 -27
-174 -37 l-58 -6 0 115 0 115 120 0 120 0 0 -87z"/>
<path d="M10043 8590 c-39 -16 -43 -40 -43 -267 0 -188 2 -222 17 -242 l16
-24 216 7 c256 8 269 10 283 45 12 31 24 383 14 433 -4 24 -14 39 -32 46 -30
14 -437 16 -471 2z m357 -254 l0 -104 -77 -6 c-43 -4 -97 -9 -120 -12 l-43 -5
0 115 0 116 120 0 120 0 0 -104z"/>
<path d="M10675 8581 c-48 -21 -50 -31 -50 -255 0 -116 3 -223 7 -237 12 -43
51 -52 204 -47 75 3 160 1 188 -4 80 -13 105 -12 125 6 16 15 19 40 25 220 8
226 3 292 -24 306 -24 13 -449 23 -475 11z m345 -255 l0 -104 -37 -6 c-21 -3
-75 -8 -120 -12 l-83 -6 0 116 0 116 120 0 120 0 0 -104z"/>
<path d="M8774 7935 l-25 -25 3 -230 c2 -172 6 -232 16 -242 10 -10 61 -13
212 -12 235 2 286 8 301 35 12 23 25 402 15 442 -14 56 -18 57 -267 57 l-230
0 -25 -25z m372 -202 c-4 -38 -9 -84 -12 -104 l-5 -37 -92 -7 c-51 -3 -100 -9
-109 -11 -16 -5 -18 5 -18 110 l0 116 121 0 121 0 -6 -67z"/>
<path d="M9401 7941 c-28 -28 -34 -86 -30 -297 5 -234 -2 -224 168 -224 148 1
351 16 363 28 13 13 31 334 23 410 -11 104 -5 102 -275 102 -214 0 -231 -1
-249 -19z m367 -235 c-1 -52 -6 -97 -9 -100 -9 -9 -97 -24 -164 -28 l-60 -3
-3 113 -3 112 122 0 121 0 -4 -94z"/>
<path d="M10024 7935 l-25 -25 3 -230 c2 -172 6 -232 16 -242 10 -10 59 -13
200 -12 236 1 298 8 313 36 7 13 14 107 17 238 5 212 4 218 -17 239 -20 20
-29 21 -251 21 l-231 0 -25 -25z m376 -234 c0 -55 -4 -102 -9 -105 -4 -3 -58
-9 -120 -12 l-111 -7 0 111 0 112 120 0 120 0 0 -99z"/>
<path d="M3540 8135 c-153 -25 -349 -106 -495 -205 -202 -138 -368 -332 -484
-566 -149 -302 -338 -925 -412 -1359 -26 -155 -31 -219 -39 -464 -10 -332 2
-836 24 -998 28 -205 57 -298 148 -475 45 -89 66 -117 153 -203 82 -83 116
-109 190 -147 165 -85 301 -121 517 -138 73 -5 508 -14 966 -20 459 -5 838
-13 843 -16 11 -7 9 -18 -28 -181 l-25 -113 -1739 0 -1739 0 0 2140 0 2140
-255 0 -255 0 0 -3765 0 -3765 143 0 c78 0 193 3 255 7 l112 6 0 274 0 273
1445 0 1445 0 0 -280 0 -280 255 0 255 0 0 301 c0 266 2 300 15 295 9 -3 48
-16 88 -28 85 -26 230 -30 317 -9 73 18 223 89 287 137 l53 39 -3 1958 -2
1959 -235 92 c-129 51 -244 97 -255 103 -12 6 -173 13 -425 17 -223 3 -435 9
-473 13 l-67 6 6 66 c3 36 14 156 25 265 l19 199 -198 201 c-410 417 -641 767
-818 1241 -63 166 -74 220 -74 362 0 141 12 184 86 295 160 241 459 316 715
182 144 -76 223 -184 305 -419 64 -185 223 -495 253 -495 13 0 81 261 92 356
13 114 2 337 -22 430 -40 162 -109 282 -226 396 -80 78 -162 131 -253 160 -85
27 -360 35 -490 13z m770 -6380 l0 -845 -1445 0 -1445 0 0 845 0 845 1445 0
1445 0 0 -845z"/>
<path d="M3560 7643 c-55 -8 -148 -48 -200 -84 -166 -116 -213 -337 -126 -593
182 -534 505 -1012 942 -1395 212 -187 387 -310 651 -462 145 -83 198 -107
208 -98 2 3 7 185 11 406 l7 403 154 2 154 3 -93 55 c-376 222 -630 445 -869
763 -154 205 -243 373 -325 611 -51 149 -91 222 -150 275 -99 88 -245 133
-364 114z"/>
<path d="M6170 6170 l0 -190 1350 0 1350 0 0 190 0 190 -1350 0 -1350 0 0
-190z"/>
<path d="M5160 5365 l0 -335 270 0 270 0 0 -2500 0 -2500 400 0 400 0 0 2045
0 2045 2040 0 2040 0 0 -2045 0 -2045 395 0 395 0 0 2500 0 2500 275 0 275 0
0 335 0 335 -3380 0 -3380 0 0 -335z"/>
<path d="M5276 4901 c-8 -12 259 -121 296 -121 4 0 8 29 8 65 l0 65 -149 0
c-83 0 -152 -4 -155 -9z"/>
</g>
</svg>
