<?xml version="1.0" standalone="no"?>
<!DOCTYPE svg PUBLIC "-//W3C//DTD SVG 20010904//EN"
 "http://www.w3.org/TR/2001/REC-SVG-20010904/DTD/svg10.dtd">
<svg version="1.0" xmlns="http://www.w3.org/2000/svg"
 width="1038.000000pt" height="1038.000000pt" viewBox="0 0 1038.000000 1038.000000"
 preserveAspectRatio="xMidYMid meet">
<metadata>
Created by potrace 1.11, written by Peter Selinger 2001-2013
</metadata>
<g transform="translate(0.000000,1038.000000) scale(0.100000,-0.100000)"
fill="#000000" stroke="none">
<path d="M4274 9058 c22 -76 21 -85 -25 -130 -49 -48 -103 -88 -119 -88 -5 0
-10 -4 -10 -8 0 -5 -33 -23 -72 -41 -40 -19 -80 -37 -88 -41 -22 -11 -180 -58
-213 -64 -15 -3 -35 -7 -45 -10 -9 -3 -33 -7 -52 -10 -19 -3 -46 -8 -60 -11
-14 -3 -46 -7 -71 -10 -25 -3 -56 -8 -69 -10 -13 -2 -57 -7 -99 -10 -42 -3
-96 -8 -120 -10 -147 -13 -180 -16 -216 -20 -64 -8 -137 -16 -181 -20 -22 -2
-54 -6 -70 -9 -16 -3 -47 -8 -69 -11 -182 -27 -426 -130 -572 -240 -92 -70
-114 -94 -104 -112 8 -16 210 -620 216 -648 1 -5 5 -17 8 -25 3 -8 34 -100 67
-205 34 -104 66 -199 70 -210 5 -11 14 -38 21 -60 6 -22 15 -49 20 -60 31 -80
66 -186 74 -222 4 -18 31 -102 46 -138 4 -11 22 -63 39 -115 56 -169 72 -210
84 -210 11 0 92 53 156 102 61 46 252 136 345 161 154 43 312 69 500 82 33 2
60 5 60 5 0 1 20 3 45 5 25 2 72 6 105 9 33 3 83 8 110 11 86 8 149 15 175 20
14 2 47 6 74 9 55 7 196 39 271 62 106 33 244 102 342 170 43 30 82 54 88 54
5 0 17 -15 24 -32 21 -47 71 -180 76 -200 2 -9 9 -26 15 -37 6 -12 8 -21 6
-21 -3 0 -1 -12 5 -27 6 -16 21 -62 33 -104 23 -76 21 -108 -11 -189 -3 -8 -7
-22 -8 -30 -2 -8 -10 -34 -18 -58 -9 -23 -16 -46 -17 -50 0 -7 -105 -329 -117
-362 -3 -8 -7 -19 -9 -25 -1 -5 -32 -100 -68 -210 -36 -109 -66 -203 -66 -207
0 -9 66 -38 85 -38 17 0 38 55 140 370 48 146 89 272 92 280 4 8 7 17 8 20 9
29 28 87 47 143 19 52 27 65 35 55 9 -11 102 -265 107 -293 1 -5 4 -14 7 -20
3 -5 11 -30 18 -55 7 -25 17 -54 22 -65 10 -23 109 -305 113 -320 1 -5 10 -34
20 -63 17 -50 20 -53 44 -47 15 4 31 7 37 8 21 4 35 35 26 59 -13 33 -24 62
-26 73 -2 6 -40 123 -85 260 -45 138 -86 266 -92 285 -6 19 -15 44 -19 55 -10
24 -27 76 -69 215 -36 117 -36 158 1 265 11 33 22 68 24 78 2 10 14 46 25 80
26 74 28 81 27 87 0 3 5 16 12 28 7 13 15 36 17 50 3 15 10 32 16 39 12 15 35
17 40 5 7 -19 120 -94 210 -141 145 -76 293 -121 483 -146 17 -2 48 -7 70 -10
50 -7 94 -12 170 -19 33 -3 76 -8 95 -10 31 -4 102 -11 235 -21 102 -8 311
-38 355 -50 8 -2 31 -7 50 -10 147 -24 415 -153 515 -248 11 -10 32 -25 46
-32 26 -14 27 -13 45 28 11 23 19 44 19 47 1 3 27 84 59 180 32 96 60 182 61
190 2 8 13 40 25 70 12 30 23 62 25 70 1 8 53 165 115 348 61 183 113 338 114
345 1 6 8 22 14 35 7 12 11 22 8 22 -4 0 23 87 41 130 3 8 8 26 10 40 2 13 8
29 13 35 11 14 110 332 110 353 -1 9 -11 29 -23 43 -29 34 -111 99 -125 99 -6
0 -12 4 -14 8 -5 14 -101 67 -163 92 -33 13 -64 26 -70 30 -13 9 -126 43 -142
43 -7 0 -13 3 -13 6 0 3 -10 7 -22 7 -13 1 -48 7 -78 13 -30 6 -71 14 -90 17
-19 2 -48 7 -65 9 -16 3 -52 7 -80 10 -27 3 -68 7 -90 10 -22 2 -74 7 -115 10
-41 4 -95 9 -120 11 -25 2 -74 7 -110 9 -36 3 -81 7 -100 10 -19 2 -57 7 -85
11 -27 3 -59 8 -70 10 -11 2 -33 7 -48 9 -127 24 -259 63 -354 106 -24 10 -47
19 -53 19 -5 0 -10 4 -10 9 0 5 -8 11 -17 15 -46 15 -131 74 -180 124 -28 28
-31 38 -26 65 14 69 13 72 -44 75 l-51 3 -162 -488 c-89 -268 -164 -495 -167
-503 -3 -8 -7 -19 -8 -25 -4 -14 -85 -257 -92 -275 -3 -8 -7 -19 -9 -25 -1 -5
-19 -59 -39 -120 -20 -60 -38 -117 -40 -126 -2 -8 -10 -32 -19 -52 -8 -21 -15
-40 -15 -42 0 -3 -12 -43 -27 -88 -16 -45 -29 -84 -29 -87 -1 -3 -4 -12 -7
-20 -4 -8 -39 -114 -78 -235 -74 -223 -94 -275 -109 -275 -4 0 -14 19 -21 43
-8 23 -16 47 -19 52 -3 6 -6 15 -7 20 -1 6 -147 442 -324 970 -177 528 -322
965 -323 970 -2 6 -24 76 -51 158 l-49 147 -60 0 c-57 0 -59 -1 -53 -22z m51
-180 c34 -74 95 -263 95 -296 0 -22 -13 -37 -74 -82 -41 -30 -108 -72 -148
-92 -71 -37 -73 -37 -89 -18 -16 18 -96 246 -106 299 -2 13 -6 28 -9 32 -2 4
35 28 83 54 49 26 90 50 93 54 3 3 25 19 50 35 25 16 51 38 58 48 7 10 15 18
18 18 2 0 15 -24 29 -52z m1813 -8 c29 -22 57 -40 62 -40 6 0 10 -3 10 -8 0
-9 121 -72 138 -72 27 0 22 -52 -19 -186 -23 -76 -45 -151 -49 -165 -4 -15 -5
-31 -1 -38 7 -11 100 -47 143 -55 13 -3 24 -5 26 -7 1 -1 5 -2 10 -3 72 -16
154 -40 167 -50 16 -11 13 -24 -28 -152 -70 -218 -70 -218 3 -229 25 -3 56 -8
70 -10 27 -4 123 -15 177 -20 45 -5 73 -15 73 -26 0 -8 -35 -125 -66 -219 -3
-8 -5 -16 -5 -17 0 -2 -6 -20 -14 -42 -13 -38 -14 -65 -4 -76 7 -7 59 -14 144
-21 39 -2 86 -7 105 -10 19 -3 58 -7 85 -10 l51 -5 52 153 c28 84 55 169 61
190 l9 36 -47 7 c-80 11 -105 14 -161 20 -30 3 -73 8 -95 11 -22 3 -50 7 -63
8 -12 2 -24 5 -26 7 -2 2 14 63 36 134 57 185 67 224 60 229 -4 2 -23 7 -42
11 -34 8 -58 10 -155 20 -128 11 -189 29 -181 51 5 13 29 95 30 104 3 15 60
166 65 170 3 3 7 12 9 20 8 33 32 48 65 40 38 -10 97 -18 192 -25 39 -3 81 -8
95 -11 14 -3 31 -6 38 -6 6 -1 12 -7 12 -13 0 -11 -30 -110 -81 -269 -25 -78
-24 -86 9 -87 15 -1 36 -3 47 -4 11 -1 54 -5 95 -9 99 -9 161 -16 185 -20 11
-3 25 -5 31 -5 8 -1 1 -34 -18 -93 -16 -51 -32 -104 -34 -118 -3 -13 -10 -30
-16 -37 -6 -7 -8 -13 -5 -13 3 0 -3 -25 -13 -55 -22 -63 -18 -68 55 -79 36 -6
229 -59 265 -73 8 -3 20 -7 27 -9 13 -2 38 52 78 171 15 44 39 106 54 138 l26
57 51 -24 c60 -28 189 -114 234 -156 36 -34 37 -45 5 -135 -14 -38 -25 -78
-25 -87 0 -10 -4 -18 -8 -18 -4 0 -17 -32 -27 -71 -11 -39 -23 -73 -27 -75 -7
-4 -59 16 -68 27 -11 13 -131 90 -193 123 -57 31 -68 34 -80 21 -18 -17 -120
-328 -115 -350 1 -9 47 -42 101 -73 53 -32 106 -65 117 -74 11 -10 24 -18 28
-18 5 0 22 -16 39 -35 24 -27 30 -42 27 -63 -9 -45 -92 -282 -109 -308 -18
-28 -13 -30 -112 43 -84 62 -200 124 -218 116 -8 -2 -20 -19 -28 -36 -17 -35
-66 -172 -72 -199 -8 -35 -44 -108 -54 -108 -6 0 -28 6 -48 14 -51 18 -132 41
-225 63 -83 19 -90 27 -76 78 5 17 11 37 13 45 14 57 79 238 90 249 11 11 25
11 92 -5 43 -9 83 -18 88 -20 6 -1 55 -14 108 -29 54 -15 99 -26 100 -24 15
19 108 326 105 347 -3 27 -45 56 -97 67 -26 6 -35 8 -142 38 -86 24 -114 23
-136 -4 -5 -8 -34 -84 -62 -169 -29 -85 -57 -161 -64 -168 -10 -13 -64 -12
-184 3 -16 2 -57 6 -93 9 -36 4 -77 10 -91 14 l-26 7 27 95 c15 52 39 132 53
176 13 45 22 86 18 92 -5 9 -58 17 -166 27 -100 10 -170 18 -208 24 -4 0 -4
13 -1 29 9 34 73 252 81 272 3 8 7 24 8 35 2 11 5 26 7 34 2 9 -6 16 -17 18
-56 9 -167 37 -221 54 -33 11 -69 21 -80 23 -10 2 -26 6 -34 8 -9 2 -23 -14
-37 -42 -31 -64 -106 -294 -101 -315 2 -10 23 -25 49 -35 56 -21 236 -66 275
-69 5 -1 18 -7 27 -14 17 -11 15 -21 -24 -142 -23 -72 -43 -137 -44 -145 -2
-8 -4 -16 -5 -17 -2 -2 -3 -7 -4 -12 0 -5 -4 -13 -8 -17 -14 -13 -9 -33 11
-43 10 -6 47 -13 82 -16 35 -3 91 -8 123 -11 32 -3 77 -7 100 -9 39 -3 71 -28
60 -46 -3 -5 -7 -19 -9 -31 -5 -24 -56 -184 -82 -255 l-16 -42 -56 4 c-31 3
-83 7 -116 10 -212 16 -230 21 -221 54 3 9 22 75 44 146 52 169 53 173 37 189
-8 7 -33 16 -57 20 -23 4 -97 23 -162 41 -66 19 -125 35 -132 35 -13 0 -32
-41 -83 -186 -21 -61 -45 -122 -52 -137 l-14 -26 -55 28 c-68 33 -100 52 -118
69 -7 6 -17 12 -22 12 -5 0 -32 22 -61 50 -47 45 -50 52 -44 82 7 32 72 225
94 282 13 33 19 32 100 -23 82 -56 149 -94 197 -114 l42 -16 11 27 c42 104 94
265 98 303 l5 47 -69 37 c-163 90 -239 158 -229 204 9 37 14 56 16 56 1 0 3
10 5 21 3 12 10 34 16 50 7 16 13 31 13 34 5 25 68 170 74 170 2 0 17 -10 33
-22 68 -54 88 -67 164 -110 117 -67 118 -67 135 -10 7 26 17 54 21 62 13 24
67 195 74 233 7 33 6 34 -67 77 -182 106 -240 154 -233 191 6 29 55 183 85
262 14 38 27 57 38 57 9 0 41 -18 70 -40z m-2548 -265 c18 -23 126 -332 118
-340 -6 -6 -99 -21 -183 -30 -82 -8 -179 -17 -193 -18 -16 0 -11 -42 19 -137
21 -68 25 -78 29 -95 2 -5 13 -40 26 -77 12 -38 20 -68 16 -69 -4 0 -16 -2
-27 -5 -21 -4 -76 -11 -162 -19 -29 -3 -72 -8 -95 -10 -77 -8 -98 -16 -98 -35
0 -9 14 -62 30 -116 17 -55 32 -103 34 -109 1 -5 10 -35 19 -64 10 -31 13 -59
8 -64 -7 -7 -124 -41 -181 -52 -8 -2 -48 -13 -88 -25 -85 -26 -96 -41 -77
-110 27 -96 89 -276 100 -288 10 -11 30 -8 116 17 57 17 115 33 129 36 14 3
37 7 52 11 15 3 31 6 35 6 5 0 16 4 26 10 24 12 17 52 -32 203 -17 50 -33 108
-37 131 l-6 40 43 13 c23 7 70 14 103 17 81 5 153 13 196 23 44 9 43 27 -11
191 -55 167 -57 175 -55 178 5 4 109 21 171 27 118 11 194 23 208 32 12 8 2
57 -42 192 -51 156 -53 168 -39 178 11 6 265 80 345 100 20 5 25 -5 63 -123
23 -71 43 -137 45 -147 2 -10 7 -27 10 -37 13 -40 13 -59 2 -67 -12 -9 -96
-39 -132 -48 -11 -3 -44 -11 -73 -19 -30 -9 -72 -18 -95 -21 -62 -9 -61 -8
-32 -105 1 -3 4 -12 7 -20 14 -34 66 -207 73 -237 8 -40 19 -37 -225 -59 -41
-3 -86 -8 -100 -9 -14 -2 -35 -3 -47 -4 l-22 -1 30 -87 c16 -49 31 -97 34
-108 2 -11 11 -39 20 -62 8 -24 19 -61 24 -83 10 -46 11 -46 -94 -54 -199 -17
-195 -16 -252 -30 -39 -9 -39 -11 -12 -96 81 -255 87 -284 55 -278 -6 1 -20
-3 -31 -9 -18 -9 -39 -14 -122 -29 -50 -9 -70 -14 -127 -34 -33 -11 -62 -20
-65 -20 -3 0 -12 12 -18 28 -12 27 -113 313 -113 320 0 9 -121 -41 -145 -61
-39 -32 -190 -125 -196 -121 -4 2 -15 26 -24 52 -10 26 -20 54 -23 62 -3 8 -6
20 -7 25 -2 6 -13 39 -25 75 -12 36 -23 76 -26 90 -3 14 -6 30 -9 37 -7 20
114 133 143 133 6 0 12 4 14 9 2 4 30 23 63 41 71 38 94 57 91 73 -1 7 -10 39
-20 72 -10 33 -19 65 -21 70 -1 6 -5 17 -8 25 -3 8 -18 50 -33 92 -14 43 -32
82 -38 87 -11 9 -78 -16 -111 -42 -5 -4 -40 -27 -77 -51 -37 -25 -83 -57 -102
-71 l-35 -26 -20 43 c-22 49 -78 231 -90 295 -8 41 -7 43 38 81 25 21 97 69
159 106 61 38 112 71 112 75 0 4 -11 39 -24 77 -32 92 -65 199 -69 221 -1 10
-6 23 -10 30 -12 19 3 43 32 49 14 4 31 10 36 14 6 4 21 10 35 13 14 2 59 12
100 22 41 9 99 18 128 19 49 3 53 1 59 -23 3 -14 8 -30 12 -36 3 -5 6 -14 7
-20 1 -5 16 -53 34 -105 32 -96 40 -123 43 -150 2 -16 -45 -35 -113 -45 -23
-3 -52 -10 -64 -15 -13 -4 -38 -11 -57 -14 -33 -5 -118 -38 -131 -51 -5 -6 6
-57 20 -95 3 -8 7 -19 7 -25 1 -5 5 -17 8 -25 3 -8 15 -40 26 -70 46 -131 55
-150 74 -150 10 0 71 16 135 35 124 37 151 43 195 44 38 1 36 17 -23 204 -50
159 -56 186 -42 188 4 1 16 3 27 5 46 8 105 14 180 19 44 3 89 7 100 9 11 3
30 5 43 5 32 1 29 24 -27 201 -52 168 -52 169 8 176 53 6 128 13 201 20 41 3
77 8 79 10 8 7 52 -1 61 -11z m4135 -90 c17 -3 59 -15 95 -25 36 -11 74 -21
85 -23 43 -7 65 -27 61 -55 -6 -52 -91 -319 -105 -335 -5 -4 -34 2 -67 15 -32
12 -63 21 -68 20 -4 -2 -13 1 -20 6 -11 9 -46 18 -111 28 -16 3 -47 10 -67 15
-49 13 -49 27 -2 172 42 128 62 179 78 189 11 8 68 5 121 -7z m-3119 -460 c57
-174 73 -233 68 -252 -3 -10 -21 -30 -41 -43 -20 -14 -41 -30 -47 -36 -6 -6
-33 -23 -61 -39 -27 -16 -53 -34 -57 -40 -4 -5 -8 -6 -8 -1 0 5 -8 3 -17 -6
-10 -8 -30 -19 -45 -25 -25 -11 -27 -10 -42 22 -23 48 -85 220 -102 280 -14
49 -14 50 12 71 15 12 53 35 85 50 33 16 59 32 59 37 0 4 6 7 13 7 6 0 26 13
42 28 48 44 89 71 97 63 5 -4 24 -56 44 -116z m-220 -548 c16 -39 29 -76 30
-82 5 -21 60 -171 67 -183 17 -26 86 2 222 91 99 66 100 66 116 46 9 -12 39
-88 66 -170 l51 -148 -27 -27 c-56 -57 -243 -174 -276 -174 -14 0 -47 42 -51
64 -4 20 -92 267 -98 273 -3 3 -31 -1 -63 -10 -32 -8 -111 -29 -176 -46 -65
-17 -123 -33 -128 -37 -9 -5 -6 -38 10 -89 5 -16 21 -68 36 -115 14 -47 28
-93 30 -103 2 -10 7 -27 10 -37 8 -26 -1 -28 -210 -46 -132 -12 -176 -9 -189
12 -18 31 -88 235 -101 297 -2 9 -6 21 -10 26 -9 15 37 24 185 36 60 5 134 14
165 20 11 2 26 4 33 4 15 1 16 -2 -35 156 -19 61 -37 117 -39 125 -1 8 -7 29
-12 45 -11 39 -5 65 16 66 9 0 24 2 32 4 8 1 31 5 50 8 36 6 187 49 230 65 14
5 28 8 32 6 3 -2 19 -37 34 -77z"/>
<path d="M4073 5895 c-38 -33 -52 -58 -67 -125 -5 -23 -21 -47 -69 -104 -44
-50 -218 -236 -293 -311 -81 -81 -81 -81 -155 -94 -90 -16 -183 -53 -290 -117
-44 -27 -88 -54 -97 -59 -35 -21 -77 -50 -82 -56 -3 -3 -16 -12 -30 -19 -13
-7 -56 -36 -95 -65 -66 -50 -93 -71 -210 -169 -67 -56 -339 -328 -400 -400
-86 -101 -229 -320 -319 -487 -68 -128 -97 -213 -101 -294 -3 -93 -58 -263
-122 -384 -12 -24 -23 -50 -23 -57 0 -8 -3 -14 -8 -14 -4 0 -14 -15 -21 -32
-37 -84 -196 -278 -228 -278 -7 0 -13 -4 -13 -9 0 -11 -80 -38 -135 -46 -22
-3 -51 -8 -65 -11 -14 -2 -47 -7 -75 -9 -155 -15 -278 -43 -400 -91 -87 -35
-255 -119 -265 -134 -3 -4 -16 -13 -28 -19 -34 -18 -67 -46 -157 -136 -120
-119 -161 -176 -223 -308 -94 -199 -110 -384 -50 -567 37 -113 83 -170 139
-172 66 -2 77 3 142 66 36 35 81 75 99 89 72 55 182 96 296 111 24 3 46 8 50
10 7 4 118 15 182 17 19 1 105 -2 190 -6 266 -14 562 -10 660 9 14 3 46 8 72
10 26 3 64 9 85 15 21 5 55 12 76 15 64 10 248 77 337 123 213 111 412 298
540 508 123 200 225 458 275 695 2 8 10 42 18 75 9 33 18 71 21 85 3 14 12 54
21 90 9 36 18 74 21 84 14 72 109 316 165 428 56 110 84 162 91 173 4 6 33 48
64 95 97 146 239 306 356 403 21 17 60 58 85 90 26 32 52 56 60 53 7 -3 14 -2
17 3 3 4 70 7 149 6 l144 -1 48 -32 c27 -18 56 -33 64 -34 9 0 23 -2 31 -3 19
-2 57 18 90 46 21 18 25 30 25 76 0 50 -3 57 -37 89 -23 21 -49 34 -65 35 -43
1 -55 4 -157 46 -53 21 -95 42 -93 47 2 6 14 13 28 17 73 21 177 48 199 53 14
3 36 8 50 11 87 21 185 37 245 41 171 11 196 25 201 114 4 66 -26 104 -94 119
-43 9 -51 8 -84 -15 -21 -13 -55 -27 -75 -30 -21 -3 -41 -8 -45 -10 -13 -8
-278 -18 -467 -18 -194 1 -194 1 -216 26 -22 25 -25 84 -12 179 12 81 107 254
206 375 19 23 41 74 41 94 0 55 -62 110 -140 125 -30 5 -40 2 -77 -30z m92
-51 c39 -10 48 -40 26 -82 -11 -21 -27 -44 -35 -51 -9 -8 -16 -19 -16 -26 0
-8 -4 -15 -8 -17 -12 -5 -94 -136 -120 -191 -57 -121 -64 -323 -14 -383 36
-42 37 -43 435 -45 174 -2 317 -6 317 -11 0 -4 -13 -8 -30 -8 -16 0 -32 0 -35
-1 -2 -1 -42 -10 -87 -20 -46 -10 -94 -21 -108 -24 -67 -14 -261 -80 -315
-107 -127 -64 -145 -88 -161 -217 -7 -58 -57 -132 -136 -201 -144 -126 -268
-270 -373 -435 -66 -103 -201 -376 -230 -465 -15 -47 -33 -98 -41 -115 -11
-26 -35 -107 -49 -168 -19 -84 -225 -225 -325 -221 -65 2 -191 15 -231 23 -34
7 -34 7 -33 62 2 83 38 182 139 379 61 120 67 131 93 167 12 17 22 34 22 37 0
4 72 111 102 151 155 207 309 375 502 546 111 99 137 139 100 153 -39 15 -129
-58 -362 -294 -351 -354 -641 -835 -677 -1121 -6 -50 -7 -50 -158 -43 -77 3
-148 8 -156 9 -9 2 -35 4 -59 4 l-43 1 -39 86 c-22 47 -40 100 -40 118 0 22
44 119 133 297 161 318 154 306 246 443 159 237 332 426 578 629 80 66 101 95
87 118 -15 24 -75 0 -152 -62 -88 -72 -358 -340 -417 -414 -22 -27 -42 -52
-46 -55 -9 -7 -159 -229 -159 -235 0 -3 -11 -22 -23 -43 -23 -36 -48 -82 -158
-287 -50 -96 -90 -168 -116 -210 -20 -33 -27 -8 -27 88 l0 92 62 120 c34 66
77 147 97 180 19 33 40 70 47 83 6 12 15 22 20 22 4 0 8 5 8 10 0 6 5 16 10
23 6 7 27 35 48 63 20 28 60 77 87 110 65 76 354 367 424 424 29 25 58 50 65
55 10 10 160 127 181 143 128 93 339 211 420 235 82 23 175 5 283 -55 88 -49
105 -60 129 -83 48 -44 88 -60 117 -47 31 14 26 35 -18 76 -40 38 -156 113
-229 150 -31 16 -57 32 -57 36 0 7 84 101 165 184 28 28 79 84 115 125 36 40
77 85 91 99 52 55 79 105 79 148 0 54 8 61 55 48z m55 -1081 c8 -3 24 -8 35
-10 11 -2 52 -15 90 -29 89 -33 163 -54 188 -54 22 0 57 -39 50 -56 -3 -8 -17
-20 -30 -25 -19 -7 -31 -4 -57 16 -43 33 -106 44 -261 47 l-130 3 -1 32 c0 19
9 44 24 63 23 30 40 32 92 13z m-2287 -1460 c27 -62 50 -115 51 -123 1 -3 14
-28 29 -56 42 -75 58 -81 232 -88 83 -4 166 -8 185 -11 19 -2 64 -6 100 -10
36 -3 74 -7 85 -9 49 -9 146 -19 215 -21 87 -3 147 13 240 61 35 18 65 32 66
31 2 -1 -1 -18 -6 -37 -18 -74 -51 -196 -57 -210 -3 -8 -8 -23 -9 -32 -9 -44
-88 -238 -135 -330 -53 -104 -144 -250 -160 -256 -5 -2 -9 -8 -9 -14 0 -15
-110 -130 -186 -196 -83 -71 -217 -150 -344 -205 -80 -34 -269 -83 -355 -93
-16 -1 -41 -5 -54 -8 -47 -11 -290 -18 -686 -21 -220 -1 -416 -5 -436 -9 -65
-11 -193 -57 -255 -91 -34 -19 -95 -65 -135 -103 -82 -76 -98 -85 -120 -68
-20 14 -56 84 -64 122 -36 174 -40 254 -16 317 5 12 9 24 9 27 2 72 112 290
196 388 139 163 349 295 566 357 122 36 126 37 190 50 14 3 63 7 110 10 152 9
233 32 330 93 56 35 150 124 150 141 0 5 4 11 8 13 23 9 112 166 188 333 30
65 31 68 33 90 2 30 19 14 44 -42z"/>
<path d="M6105 5919 c-16 -5 -43 -19 -60 -33 -24 -19 -29 -32 -31 -67 -1 -48
7 -73 46 -134 14 -22 27 -44 30 -50 3 -5 27 -43 53 -83 85 -128 118 -214 120
-313 1 -76 -24 -112 -84 -125 -26 -5 -252 -5 -339 0 -186 12 -308 23 -337 29
-11 3 -43 17 -69 31 -68 36 -97 34 -145 -12 -54 -50 -60 -94 -19 -151 34 -47
39 -49 156 -56 124 -7 152 -11 274 -40 58 -14 119 -27 136 -30 17 -3 49 -11
72 -19 22 -8 42 -12 45 -10 7 8 29 -25 23 -35 -3 -5 -32 -17 -64 -27 -31 -10
-68 -24 -82 -31 -14 -7 -40 -13 -58 -13 -18 0 -47 -7 -63 -16 -132 -68 -114
-213 29 -239 21 -3 46 3 84 23 29 16 75 34 101 41 104 26 300 8 312 -28 3 -10
38 -49 77 -87 200 -193 260 -256 316 -334 34 -47 66 -89 70 -95 30 -38 122
-204 175 -316 95 -197 174 -442 213 -659 3 -14 10 -43 16 -65 5 -22 12 -47 13
-55 2 -8 11 -42 20 -75 10 -33 21 -73 25 -90 7 -27 22 -66 59 -157 6 -16 8
-28 6 -28 -6 0 133 -270 150 -290 6 -8 14 -22 17 -30 19 -53 204 -267 302
-349 149 -123 383 -235 581 -277 204 -44 190 -43 710 -48 580 -6 578 -6 680
-33 148 -39 206 -72 314 -180 l63 -64 84 4 c46 2 86 6 88 8 25 29 87 194 92
249 6 59 6 219 0 246 -11 52 -68 209 -95 262 -133 263 -380 467 -703 581 -49
17 -88 28 -88 25 0 -2 -8 0 -18 5 -32 17 -167 41 -268 47 -55 3 -106 8 -114
11 -8 3 -25 7 -36 9 -42 5 -133 55 -183 100 -73 66 -139 162 -211 309 -36 72
-65 135 -66 140 -2 6 -16 47 -33 93 -17 45 -28 82 -26 82 3 0 1 8 -4 18 -5 9
-12 49 -15 87 -4 39 -9 84 -12 100 -7 34 -156 338 -174 355 -3 3 -19 28 -35
55 -83 145 -236 329 -428 517 -107 105 -129 124 -282 247 -66 53 -122 98 -125
101 -3 3 -12 10 -21 15 -9 6 -68 44 -130 86 -197 132 -328 196 -412 200 -23 2
-56 8 -72 15 -27 11 -155 134 -267 255 -18 20 -51 56 -73 80 -82 89 -124 151
-140 206 -27 94 -89 134 -170 112z m64 -78 c7 -5 14 -29 16 -55 3 -40 12 -57
59 -114 30 -37 76 -90 103 -119 26 -28 91 -98 143 -154 52 -56 107 -115 123
-130 33 -33 34 -32 -80 -97 -170 -96 -237 -160 -209 -197 14 -20 47 -16 81 10
11 8 37 28 59 45 21 16 45 30 52 30 8 0 14 4 14 9 0 4 28 21 63 37 179 82 227
82 388 0 105 -53 292 -172 364 -230 17 -13 59 -47 95 -76 160 -126 354 -309
492 -465 20 -22 72 -92 117 -155 45 -63 84 -120 89 -126 4 -5 13 -21 21 -35 8
-13 31 -51 51 -84 36 -60 66 -115 111 -210 20 -42 24 -66 24 -142 0 -52 -5
-97 -11 -103 -7 -7 -31 30 -83 132 -188 373 -336 609 -484 772 -188 206 -416
411 -487 438 -19 7 -27 5 -36 -7 -20 -27 -4 -54 60 -106 205 -168 399 -364
508 -514 4 -5 19 -24 33 -41 14 -18 25 -35 25 -38 0 -3 16 -26 35 -52 19 -25
35 -52 35 -59 0 -7 3 -15 8 -17 13 -6 87 -137 202 -363 62 -121 123 -239 136
-263 l22 -44 -24 -56 c-14 -31 -30 -68 -36 -82 -27 -62 -37 -74 -65 -76 -15
-1 -87 -5 -158 -8 -72 -4 -150 -9 -173 -11 -49 -4 -56 4 -67 80 -6 44 -24 111
-42 155 -4 8 -7 17 -8 20 -18 57 -133 285 -195 385 -53 87 -161 243 -189 272
-12 12 -21 25 -21 28 0 3 -8 13 -17 23 -10 10 -43 47 -73 82 -71 83 -280 292
-349 350 -116 97 -137 105 -160 61 -9 -17 0 -29 76 -98 95 -85 333 -320 374
-368 62 -74 153 -192 191 -249 23 -33 44 -63 47 -66 10 -9 31 -44 44 -72 6
-16 15 -28 19 -28 4 0 8 -5 8 -11 0 -6 8 -23 19 -37 29 -42 126 -237 166 -337
36 -89 56 -197 38 -208 -27 -17 -135 -30 -243 -31 -85 0 -101 3 -149 27 -115
59 -211 154 -211 210 0 10 -14 61 -31 112 -16 52 -29 96 -27 98 2 2 -2 10 -8
18 -6 8 -17 32 -24 54 -28 88 -133 306 -191 395 -21 33 -39 63 -39 65 0 9
-157 213 -197 256 -61 66 -136 140 -192 189 -28 25 -64 65 -81 90 -30 47 -60
141 -54 172 1 10 -17 39 -41 65 -70 79 -243 153 -460 199 -11 2 -51 11 -90 19
-77 17 -116 23 -157 24 -16 1 -28 6 -28 11 0 7 48 8 148 3 81 -4 237 -7 347
-8 174 0 206 3 250 19 52 20 84 50 85 78 0 9 4 19 9 22 5 4 8 45 6 94 -4 115
-31 195 -117 343 -14 24 -36 54 -54 73 -18 19 -74 127 -74 142 0 14 38 44 55
44 5 0 16 -4 24 -9z m19 -1145 c0 -64 6 -61 -145 -60 -76 0 -151 -4 -168 -9
-66 -22 -85 -30 -85 -37 0 -14 -51 -21 -66 -9 -8 6 -14 22 -14 35 0 26 22 39
83 49 17 4 83 24 147 45 63 22 131 42 150 45 19 3 36 8 38 10 9 9 61 -49 60
-69z m2273 -1466 c20 -53 107 -230 118 -240 4 -3 12 -18 20 -33 25 -48 120
-156 176 -200 55 -43 141 -81 205 -91 19 -3 46 -8 60 -10 14 -3 54 -7 90 -10
104 -10 152 -17 203 -31 26 -8 47 -12 47 -10 0 10 183 -60 275 -106 245 -120
426 -311 525 -554 35 -88 59 -208 55 -285 -2 -44 -6 -83 -9 -88 -3 -4 -7 -21
-10 -36 -11 -62 -37 -135 -57 -160 -32 -40 -44 -35 -144 60 -66 63 -152 117
-239 148 -36 13 -66 23 -66 21 0 -2 -15 1 -32 6 -18 6 -51 12 -73 15 -22 3
-47 7 -55 10 -8 4 -204 8 -435 10 -431 4 -620 9 -690 20 -59 8 -231 52 -299
75 -68 23 -213 94 -237 115 -8 8 -19 14 -22 14 -28 0 -205 156 -283 250 -70
84 -62 73 -118 160 -110 168 -179 332 -261 613 -49 170 -53 165 70 108 106
-50 130 -52 385 -27 89 9 169 15 255 21 123 8 264 23 308 31 45 9 119 138 172
299 5 17 8 17 26 -10 10 -17 28 -55 40 -85z"/>
</g>
</svg>
