<svg version="1" xmlns="http://www.w3.org/2000/svg" width="1166.667" height="1166.667" viewBox="0 0 875.000000 875.000000"><path d="M582.5 100.4c-6.4 2.9-11.9 9.2-14.3 16.5-1.5 4.6-2.4 5.8-4.8 6.5-16.9 5.4-27.2 11.9-34.1 21.6-2 2.8-2.3 10.2-.7 16.4 2.7 10.3 12 26.5 23.3 40.6 12 14.9 39.9 43.6 57.4 58.9 5.9 5.2 10.5 9.6 10.3 9.9-.3.3-10.3.6-22.3.8-12 .1-24.1.7-27 1.3-6.9 1.4-20.8 7.1-29.3 12l-6.9 4-2.9-3.7c-1.6-2-4.4-6-6.2-8.7-18.8-28.2-58.2-66.4-82.2-79.8-6-3.3-18.2-8.1-23.1-9.1-1.2-.3-4.2-.9-6.7-1.4-8.1-1.6-18.1-.6-28 2.7l-9.2 3.1-4.7-2.8c-7-4.3-9.8-5-20.9-4.7-11.2.3-15 1.8-22.4 8.8-18.5 17.7-13.4 50.3 9.7 61.7 4.3 2.2 6.3 2.5 15 2.5 8.5-.1 10.7-.4 15-2.5 5.7-2.8 10.6-7.5 15.3-14.4 4.4-6.7 5.5-11.5 5-21.6-.4-6.8-1.1-9.9-3.6-15.3-2.2-4.7-2.8-6.9-1.9-7.2 3-1.1 16.9-2.2 23.7-1.9 27.1 1.1 63.1 27.9 108.8 81.3 6.4 7.5 11.9 13.8 12.2 14.1 3.4 3.4 3.3 3.9-1.9 9.6-9.9 10.8-15.4 21.4-18.9 36.9-6.6 28.5-4.2 54.7 8.8 96.5.4 1.4 3.3 8.3 6.5 15.3s5.5 13 5.2 13.3c-.3.3-7.4.7-15.9 1-8.4.2-18.4.8-22.3 1.5-3.8.6-8.1 1.2-9.5 1.5-5.1.8-19.7 5.2-27 8.2-35.6 14.3-69.1 46.4-86.1 82.7-7.3 15.5-12.9 33.9-14.5 47.5-.8 6.8-.7 49.8.1 56 .9 7.1 6.4 25.5 10.7 35.9 6.4 15.5 6.9 17.2 5.7 18.7-2.5 3-28.5 11-41.9 12.8-12.2 1.7-17 1.3-31-2.7-23.7-6.7-39.3-8.9-63-8.8-11 0-14.8.4-20.5 2.2-12.3 3.8-19.9 10.3-21.2 18.2-.8 5.4.3 8.2 5.5 13.5 8 8.1 19.6 13.8 38 18.8 10.5 2.8 13.4 4.4 8.7 4.5-1.7 0-3.8.2-4.7.4-2 .4-21.4 1.5-36.3 2-8.2.3-13.5-.1-20.7-1.5-17-3.4-31.6-2.9-44.8 1.7-17.4 6-34 13.4-34 15.3 0 1.9 7.4 1.6 21-1 30.7-5.8 33-5.8 53-.9 12.7 3 14.7 3.2 34 3.5 34.3.4 43.2.6 50.5 1.4 28.5 3.1 62.6 3.9 185.6 4.5 74.7.3 82.4.1 91.5-1.5 7.7-1.4 16.2-1.8 38.4-2 35.2-.2 54.7-1 67.5-2.5 1.7-.2 5.5-.7 8.5-1 3-.3 6.9-.8 8.5-1.1 45.6-7.6 73.6-21.4 93.6-46.2 6.5-8 10.6-15.9 15.9-30.2l3.1-8.5-.1-20.4c-.2-26.1-1.7-35.1-10.2-61.1-14.2-43.4-42.7-95.1-81-146.6-4-5.5-8-10.9-8.8-12.1-.8-1.2-6-8.2-11.6-15.5-16.7-22.1-16.7-22.1-14.8-23.5.9-.6 4.8-2.3 8.8-3.7 3.9-1.4 12.8-4.6 19.8-7.1 39.5-14.1 60.2-30.5 64.7-51.5 2.4-11.1-.6-25.3-8-37.6-4-6.6-14.7-17.9-20.7-21.9l-4.2-2.8-.1-8.6c-.1-12.2-.5-14.6-4.1-21.3-5-9.4-15.3-18.5-24.3-21.5-5-1.6-15.1-1.6-21.2.2-9.4 2.8-15.4 7.4-25.1 19.5l-2 2.4L620 262c-20.1-20.6-29.6-30.9-40.7-43.6-2.8-3.2-6.4-7.3-7.8-8.9-5.6-6.4-21.4-27.3-25.7-34-8.7-13.6-11-21.2-8.2-26.8 2.6-5.1 10.9-12.2 19-16.2 7.2-3.6 7.6-3.7 8.9-1.9.8 1.1 1.5 2.5 1.5 3.2 0 2.1 3.6 8.5 6.4 11.4 7.7 8.1 21.1 11.2 29.9 6.9 9.8-4.8 17.7-16 17.7-25.3 0-5.7-3.2-14.7-6.7-18.9-7.6-9-21.4-12.2-31.8-7.5zm18.1 7.7c1.6.5 4.9 3.2 7.5 5.9l4.8 5-.5 6.7c-.7 9.6-1 10.8-4.5 14.3-7.6 7.5-16.3 9-24.1 4.1-6.6-4.2-12.2-14.5-8.9-16.5 1.3-.8 4.1.4 4.1 1.7 0 1.9 5 7.7 8 9.2 6 3.1 13.1.7 17-5.7 4.9-8-.7-19.6-9.5-19.9-6.5-.2-7-.1-11.6 4.2-6.4 5.9-10.7 7.2-9.1 2.9 1-2.7 6.9-8.9 10.7-11.1 3.4-2.1 11.7-2.5 16.1-.8zm-238.9 85.2c1.8.6 4.2 2 5.3 3.3l2.1 2.2-4.2 4.1c-2.9 2.9-4.7 4-5.8 3.5-5.5-2.4-13.7-.6-17.9 3.9-7.3 7.7-5.7 22.6 2.8 27 4.6 2.4 13.5 1.9 17.2-.8 7-5.3 9.3-14.9 5.3-22.5l-1.8-3.4 3.8-3.2c2-1.8 4.3-3 5.1-2.7 1.6.6 5.3 7.2 6 10.7 2.9 14.7-4.1 28.5-17.6 34.2-4.8 2.1-15.4 1.7-20.9-.7-18-7.7-22.6-33.8-8.5-48.3 5.6-5.7 12.6-8.7 19.9-8.4 3.3.1 7.5.6 9.2 1.1zm318.9 71.4c4.5 2.4 10.3 8.4 13.1 13.5 2.6 4.8 2.6 22.9-.1 27.7-6.6 12.1-18.9 18.2-31.6 15.6-5.3-1-8.1-2.2-14.7-6.1-1.7-1-3.4-1.6-3.8-1.3-.3.4.2 3.3 1 6.5.9 3.2 1.5 8.8 1.4 12.4-.6 17-8.2 29-23 36.4-6.6 3.3-7.5 3.5-16.2 3.3-7.9-.2-10-.6-15.1-3.1-15.3-7.7-23.5-22.7-22.4-41.4.7-12.9 11.2-28.2 23-33.7 4.8-2.2 6.3-2.4 15.8-2.1 12 .3 15.1 1.4 24.7 8.2 7.2 5.2 8.8 4.9 7.2-1.1-1.5-5.4-.6-15.1 1.9-20.7 2.6-6 8.7-12.6 13.7-15 5.5-2.6 19.2-2.1 25.1.9zm-103.1 22.2c.3.5-2.4 3.9-5.9 7.6-9.5 9.7-13.1 18.4-13.9 33.5-.6 11.7 1.6 19.7 8.3 30.4 9.2 14.6 22 22.1 39 22.9 16.8.9 32.5-7.2 41.4-21.1 6.4-10.1 8.5-15.6 10-26.4.3-2.7.7-2.8 9.7-3.2 13.8-.7 19-2.7 27.5-10.8l5.2-4.9 4.8 4.2c13.4 11.3 20.5 23 20.9 34.3.3 8.8-1.9 13.8-7.5 16.6-7.4 3.8-36 10.4-49 11.4-7.1.5-9-.6-9-5.4 0-3.8-.2-4-2-3-2.3 1.2-3.5 4.9-2.6 7.8 2.1 6.5 16.4 8.1 34.1 3.9 1.1-.3 4-1 6.5-1.6 2.5-.6 6.6-1.7 9.2-2.5 2.6-.8 5-1.1 5.3-.6 1.6 2.6-27.3 15.5-61.8 27.5-16.1 5.6-21.4 10.6-19.5 18.7 1.2 5.4 5.5 12.1 19.8 30.8 26.1 34.2 43.3 59.4 61.5 90 12.1 20.4 12.8 21.9 10.9 24.5-2 2.7-1.8 5.5.4 5.5 1 0 2.3-.5 2.8-1 1.7-1.7 3.7 1.5 9.4 14.5 2.9 6.6 6.2 14.2 7.5 17 1.2 2.7 3.2 8.4 4.5 12.5 1.3 4.1 3.1 10.1 4.1 13.4 1 3.2 3.3 11.5 5.1 18.5 3.1 12 3.2 13.5 3.3 31.6 0 18.4-.1 19.3-2.9 28-9.6 29.3-31.7 48.4-68.2 59.1-8.2 2.4-20 5.1-26.4 6-1.9.3-4.6.7-6 .9-2.5.5-9.8 1.3-18 2-2.5.2-13.9.7-25.5 1l-21 .6 2.6-2.3c1.4-1.3 5.4-4.3 8.9-6.8 7.1-5 28.4-25.6 35.3-34 4.5-5.5 13.7-19.3 13.7-20.5 0-.4.8-1.9 1.8-3.3 6-8.8 15.8-36 18.6-51.7 2-10.7 2.5-29.3 1.3-45.5-1.2-15-1.6-17.8-4.7-29.5-7.9-30.1-23.6-57.4-45-78.2-17.9-17.5-39.8-31.1-62.5-38.9-6-2-11.8-4.4-12.7-5.3-2.4-2.3-10.3-17.8-15.5-30.4-7.3-18-13.9-46.7-14.7-64.7-.8-19.2 8-47.5 18.8-60.5l2.5-3 3.6 3.8c2 2 4 3.5 4.5 3.2.9-.6-.3-4.2-2.7-8.1-1.2-2-1.1-2.4 1.8-4.8 4.3-3.6 11.5-7.2 22.4-11.2 5-1.8 9.1-3.3 9.2-3.4.1 0 .4.4.8.9zM533 480.3c33.2 6.6 56.6 19.2 81.6 44.2 23 22.9 39.1 57.4 43 92.1 2.2 19.6-.5 50.6-5.7 66.4-4.6 13.9-16.1 35.5-24.6 46.1-12.4 15.4-27.1 28.5-43.7 38.8-9 5.6-16.9 9.1-29.4 13-15.6 4.9-18.9 5.4-39.2 5.5-18.4.2-26.4-.7-37.8-3.9-33.5-9.6-61.8-29.3-81.9-57.3-11.7-16.2-23.6-43.4-27.4-62.7-1-4.8-1.4-14.4-1.4-30 .1-19.8.4-24.5 2.3-33.6 5.3-25.4 15.2-46.8 30.4-65.4C425 502 454.5 485 493 479.7c3.5-.5 37 0 40 .6zM380.2 732.2c1.3 1.3 4.3 5 6.8 8.3 6.1 8.2 21.2 23.1 29 28.5 9.3 6.6 9.1 7.2-2.7 6.6-5.4-.3-15-.8-21.3-1.1-24.3-1-36.7-1.6-43-2-3.6-.3-10.3-.7-15-1-41.1-2.5-77.4-8.8-105-18.2-9.2-3.1-23-10.1-23-11.7.1-3.5 4.2-5.4 16.5-7.5 5.4-1 26.8-.7 32.5.4 1.9.3 4.6.8 6 .9 5.9.8 16.3 2.9 27.2 5.7 15.9 4.1 14.8 3.9 28.8 3.9 13.3-.1 16.9-.4 23.4-2.1 9.2-2.4 31.4-10 33.2-11.4 2.6-2 3.9-1.9 6.6.7z"/><path d="M666.2 291.5c-2.2 4.7 1.7 9.7 5.8 7.5 3.2-1.7 3.9-5.9 1.4-8.4-2.4-2.4-5.9-2-7.2.9zM603.4 322c-3.7 1.5-6.3 5.7-5.7 9.3.7 4.9 4.3 7.9 10 8.4 4.1.4 5.1.1 7-1.9 7.2-7.8-1.3-19.9-11.3-15.8zM546.1 370.9c-1.2.8-1.2 1.2-.2 2.5 1.5 1.8 2.9 2 5 .7 1.2-.8 1.2-1.2.2-2.5-1.5-1.8-2.9-2-5-.7zM586.5 388.2c-1.3 2-1.3 2.4.1 3.9 2.5 2.8 6.2.1 4.8-3.5-.9-2.5-3.3-2.6-4.9-.4zM564.5 393.3c-.4 1-.5 2.1-.1 2.4 1 1 1.8-.4 1.3-2.4-.4-1.7-.4-1.7-1.2 0zM549.7 414.7c-1.1 1-.8 5.1.4 5.9.6.3 2-.3 3.1-1.4 1.9-1.9 2-2.2.5-3.6-1.7-1.7-3-2-4-.9zM604.4 430.4c-.8 2.1 1.4 5.6 3.6 5.6 2.3 0 3.6-3.6 2-5.5s-4.9-1.9-5.6-.1zM572.3 450c-1.1 1.7-1 2.1.8 3.1 1.7.9 2.5.8 3.7-.4.8-.9 1.2-2.3.9-3.1-.9-2.2-4-2-5.4.4zM624.3 481.7c-.7.2-1.3 1.5-1.3 2.8 0 2.6 3.1 3.9 5.5 2.1 1.4-1 1.4-1.3 0-3.4-1.7-2.3-2.1-2.4-4.2-1.5zM643.7 489.7c-2.6 2.5 2.6 6.3 5.2 3.8 1.2-1.2 1.2-1.7.1-2.9-1.3-1.6-4.2-2.1-5.3-.9zM627 509c0 .5.5 1 1 1 .6 0 1-.5 1-1 0-.6-.4-1-1-1-.5 0-1 .4-1 1zM661.3 516.2c-1.6 1.9.2 5.8 2.7 5.8s3.7-2.6 2.3-4.9c-1.3-2.1-3.7-2.5-5-.9zM661.1 549.8c-1.7 3.2 3.5 7.3 5.4 4.1.4-.5.4-2.1.1-3.5-.8-2.9-4.1-3.3-5.5-.6zM688.1 556.9c-2.1 1.3-.9 5.6 1.7 5.9 1.8.3 2.2-.1 2.2-2.1 0-2.9-2-4.9-3.9-3.8zM698.5 581c.3.5 1 1 1.6 1 .5 0 .9-.5.9-1 0-.6-.7-1-1.6-1-.8 0-1.2.4-.9 1zM681.8 597.6c-.3.3-.3 1.4-.1 2.5.8 2.8 4.7 2.1 5.1-.9.3-1.7-.1-2.2-2.1-2.2-1.3 0-2.6.3-2.9.6zM713.4 600.4c-1 2.6 0 5.1 2.1 5.1 1.6 0 2-.7 2-3 0-3.3-3-4.9-4.1-2.1zM699.5 614c-.4.7-.3 1.6.3 2.2 1.4 1.4 4.7.6 4.7-1.2 0-1.8-4-2.6-5-1zM707.1 635.4c-.9 1.1-.8 1.7.5 3 2.1 2.2 3.9 1.5 3.9-1.5 0-2.8-2.6-3.7-4.4-1.5zM735.6 635.7c-.9 2.1 1.6 4.6 3.7 3.7 2.1-.8 2.2-4 .1-4.8-2.4-.9-3.1-.7-3.8 1.1zM684.7 640.7c-1.1 1-.8 2 .8 2.7 1 .4 1.5-.1 1.5-1.4 0-2-1.1-2.6-2.3-1.3zM720.9 651.7c-.9.9-.8 1.7.1 2.8 2.4 2.9 5.7 1.2 4.6-2.3-.7-2.2-3.2-2.4-4.7-.5zM698.6 656.9c-.4.7-.5 1.5-.2 1.8.9.9 1.9-.4 1.4-1.8-.4-1.1-.6-1.1-1.2 0zM738.3 671.6c-.4 1.1.1 2.2 1.2 3 2.5 1.9 3.2 1.8 3.8-.5.9-3.5-3.7-5.8-5-2.5zM681.8 673.5c-.9.9.2 4.3 1.6 4.8 2 .8 3.8-.8 3.4-2.9-.3-1.8-3.8-3.1-5-1.9zM699.4 690.5c-1.4 3.6 2 5.5 4.8 2.7.8-.8.8-1.5-.2-2.7-1.6-1.9-3.9-1.9-4.6 0zM707.1 711.9c-1.3 2.3 1 4.7 3.4 3.7 2-.7 1.9-4.2-.1-5-2.2-.8-2.2-.8-3.3 1.3zM685.1 717.9c-.8.6-.9 1.1-.3 1.5.6.3 1.4.1 1.7-.5.9-1.4.2-2-1.4-1zM726.3 730.7c-1.8.7-1.6 5.3.3 6 .8.3 2.2-.1 3-.9 2.4-2.4-.1-6.2-3.3-5.1zM668.7 734.7c-1.3 1.2-.7 4.1.9 4.7 2.5 1 4.6-1.2 3.3-3.5-1-1.9-3-2.5-4.2-1.2zM646 738.5c-1.6 2-.1 3.9 2.6 3.3 2.7-.5 3.2-4.8.6-4.8-1.1 0-2.5.7-3.2 1.5zM653.2 746.2c-2.7 2.7.5 7.3 3.8 5.3 2-1.2.4-6.5-2-6.5-.3 0-1.1.5-1.8 1.2zM686.1 750.8c-1.2 2.3 1.2 5.7 3.4 4.8 2.2-.8 2.9-3.4 1.5-5.1-1.7-2-3.7-1.9-4.9.3zM653.5 765.1c-1 1.5.3 2.5 1.6 1.2.7-.7.7-1.3.1-1.7-.6-.3-1.4-.1-1.7.5zM632.6 767.5c-2.3 2.4-.4 6 2.4 4.5 2.3-1.3 2.6-3.3.6-4.9-1.1-.9-1.8-.8-3 .4zM519.7 507.6c-.1.1-3.2.4-6.9.8-3.6.3-7.2.8-8 1.1-.7.2-2.6.6-4.3.8-14.8 2.2-38.1 11.9-55.5 23.1-26.5 17.1-46.6 51-45.5 76.6.6 12.5 9.4 51.1 15.7 69 7.4 20.8 13 30.5 24.9 43.1 17 17.9 41.5 25.5 68.9 21.5 20-3 43.9-12.7 70-28.4 17.8-10.7 26.6-17.4 25.5-19.3-.3-.5-5.4 2.4-11.3 6.4-11.4 7.7-37.4 21.2-50.8 26.5-18.5 7.2-24.5 8.4-42.9 8.8-18.3.4-22.6-.2-31.4-4.3-18.7-8.8-33-24.9-41.7-47-11.1-28.1-17.4-72.2-12.8-89.5 6.9-26.6 25.7-47.6 56.1-62.8 17.2-8.6 30.1-12.5 44.5-13.7 26.6-2.1 40.2 1 54.8 12.2 15.5 12 36.6 36.8 44.2 52 5.6 11.2 7.3 25.8 3.9 33.7-1.9 4.4-13.5 16.7-14.7 15.6-.3-.4 1.3-3.4 3.5-6.7 2.3-3.3 4.6-7.2 5.1-8.7 1.2-3 1.4-11.3.5-15.8-1.3-6.3-9.4-22.8-14.2-28.6-.6-.8-3.2-4.2-5.7-7.5-5.3-7.2-18.7-20.8-25.9-26.3-10.3-8-22.1-12-36.2-12.5-17.5-.7-39.6 4.5-58 13.6-25.4 12.5-46.3 37.2-50.3 59.7-2.3 12.4-.7 33.2 3.9 52.5 9.2 38.4 24.8 60.2 49.1 68.6 5.2 1.8 8.5 2.2 19.3 2.2 17.8.1 26.1-1.3 40.4-6.5 14.5-5.3 38.6-18.6 50.5-28 7.6-6 3.5-4.5-9.8 3.5-17.1 10.4-21 12.5-30.6 16.4-19.5 8-32.1 10.8-48.5 10.7-12.2-.1-21.6-2.3-29.3-7.1-5.8-3.5-19.8-18.8-23-25.1-5.1-9.8-12.3-30.6-13.8-40.1-.3-1.4-.9-4.9-1.5-7.8-1.4-7-1.8-28.5-.7-36.8 1.7-12.5 8.4-24.3 20.7-36.6 13.9-13.8 27.6-21.5 50.5-28.5 20.3-6.1 45.2-4.6 57.1 3.6 4.6 3.2 16.4 14.7 24.5 23.9 17 19.3 24.4 36.4 21.7 50.3-1 4.7-8 12.5-14.4 16-15.7 8.5-48 11.9-69.8 7.3-23.3-4.9-45.8-16.6-53.3-27.8-8.9-13.3-7-18.3 10.8-29.4 13-8.1 16.9-9.6 23.7-9.5 3.5.1 7.9.8 9.9 1.7 4.5 1.8 12.3 9.9 21.5 22.2 8.9 11.9 11.8 13.9 6.2 4.4-4.9-8.4-10.5-15.4-20.2-24.8-6.6-6.3-11-8.6-17.1-8.6-8.5 0-28 9.8-37.9 18.9l-5.6 5.2-.1 7.1c-.1 3.9-.4 7.4-.7 7.8-1.3 1.2-3.7-6.7-3.7-12.1 0-6.7 2.2-9.7 12.4-16.5 22.8-15.2 36.5-18.6 46.9-11.4 6.5 4.4 17.2 15.9 24.8 26.4 6.5 9.1 9.9 13 9.9 11.5 0-3.3-15.5-25.7-23.4-33.8-9.2-9.4-14.1-12.1-22.8-12.3-3.9-.1-8.9.2-11.1.7-7.9 1.8-29.9 14.1-37.4 20.9-6.9 6.3-8.1 15-3.3 24.6 7.7 15.4 26.6 29.5 51.4 38.2 7.9 2.8 11.8 3.9 20.1 5.7 6.4 1.4 15.3 1.8 34.5 1.7 18.7 0 22.5-.3 29.3-2.2 15.6-4.3 25.9-9.4 34-17 7.3-6.8 9.9-12.7 10.3-23.1.6-14.8-3.3-25.7-15.4-43.7-7.1-10.4-10.8-14.9-22.4-26.5-20.6-20.6-32.9-27.5-52.8-29.3-7.1-.7-16-1.2-16.3-.9zM244.5 742c-.3.5.1 1 .9 1 .9 0 1.6-.5 1.6-1 0-.6-.4-1-.9-1-.6 0-1.3.4-1.6 1zM288.2 748.9c.2.7.7 1.2 1.1 1.2 1.2-.1.9-1.5-.3-2-.7-.2-1.1.2-.8.8zM268.3 750.2c-1.3 2.1-1.2 3.7.3 4.9 1.1.9 1.9.8 3.4-.6 1.9-1.7 1.9-1.9.4-3.7-2-2.1-3-2.3-4.1-.6zM368.9 750.6c-.9 1.1-1 2-.3 3.2 1.5 2.3 2.9 2.5 4.8.7 1.3-1.3 1.3-2 .3-3.5-1.4-2.4-3-2.5-4.8-.4zM330.6 754.6c-.4.9-.1 2.3.5 3 1.3 1.6 1.9 1.7 3.8.5 1-.7 1.1-1.3.2-3-1.4-2.5-3.6-2.8-4.5-.5zM394.4 760.5c-.9 2.3.3 4.5 2.5 4.5 2.4 0 3.2-2.1 1.6-4.3-1.5-2.1-3.4-2.2-4.1-.2zM348 765c0 1.5.7 2 2.5 2s2.5-.5 2.5-2-.7-2-2.5-2-2.5.5-2.5 2zM111.8 327.8l-35.3 35.3c-.4.4 8.5 35.3 12.2 48.1.3 1 1.5 1.9 2.7 2 5 .3 10.9-.1 11.8-1 .8-.8-4.8-24.5-9.2-38.3l-1.7-5.7 13.4-13.9c29.7-30.6 43.7-44.3 45.3-44.3.9 0 9.2 2 18.5 4.5 25.9 6.8 54.2 14.5 61.6 16.6 9.4 2.7 13 2.4 30.2-2.2 8.4-2.2 19.5-5.1 24.7-6.5 5.2-1.4 12.6-3.4 16.4-4.5 3.8-1.2 7.8-2.2 8.9-2.5 1.1-.2 6-1.5 10.9-2.9s9.9-2.3 11-1.9c1.1.3 14.6 13.1 30.1 28.3l28.1 27.8-2.2 9.4c-1.3 5.2-2.4 9.8-2.5 10.4-4.1 15.5-5.9 24.6-5.2 25.4 1.4 1.4 8.6 2 11.2 1 2.8-1 4.3-4.6 7.8-18.9 1.5-6.3 4.1-15.8 5.7-21l2.9-9.5-32.2-32c-17.6-17.6-33.8-33.4-36-35.1l-3.8-3.2-11.3 3c-6.2 1.6-17.8 4.7-25.8 6.9-20.5 5.7-29.3 8-31 8.4-.8.2-6.7 1.7-13 3.4s-12.7 3.1-14.1 3.1c-1.4 0-14.2-3.2-28.5-7.1-14.2-3.8-32.9-8.8-41.5-11-8.6-2.1-17.5-4.6-19.9-5.4-2.3-.8-4.5-1.5-4.9-1.5-.3 0-16.2 15.6-35.3 34.8z"/><path d="M268.3 369.2c-2.2 4-8.6 16.5-14.3 27.8-19.6 39.1-32.2 63.5-33.5 64.9-1.5 1.6-5-4.7-25.2-45.2-7-14.1-13.2-25.6-13.7-25.4-.7.2-17.7 32.6-18.8 35.8-.3.9-34.1 1.7-78.4 1.9-26.2.1-24-.7-23.9 9v5.5h110.9l3.4-7c1.9-3.9 3.7-7.2 4.1-7.5.4-.3 1.1-1.6 1.7-3 1-2.3 2.2-.3 14.9 25 16.7 33.6 23.5 46.1 24.7 45.4.4-.3 11.4-21.8 24.4-47.7 13-26 24.5-48.7 25.7-50.6l2-3.3 1.7 2.2c.9 1.2 6.6 11.8 12.5 23.4 5.9 11.6 11.1 21.5 11.5 21.9.4.4 28.9 1 63.3 1.2l62.6.3-.3-5.6c-.2-3.2-.5-6.5-.5-7.4-.1-1.6-2.6-1.7-29.3-1.8-16.1-.1-39.6-.3-52.3-.5-12.6-.2-25.6-.4-28.7-.4l-5.6-.1-16.2-31.8c-8.8-17.4-16.7-32.3-17.4-33-1.1-1.1-2-.1-5.3 6z"/><path d="M104 460c0 1.3 16.9 18.7 84.1 86.2l53.6 53.9 46.9-47c84.7-84.9 91.8-92.1 91.1-92.7-.4-.4-4.5-.9-9.1-1l-8.3-.3-47.1 47.2c-25.9 26-52.7 53-59.7 60.1l-12.7 12.9-22.1-22.1c-89.9-89.6-97.8-97.2-100.5-97.3-1.5-.1-5.7-.3-9.4-.5-4.2-.2-6.8 0-6.8.6z"/></svg>