<?xml version="1.0" standalone="no"?>
<!DOCTYPE svg PUBLIC "-//W3C//DTD SVG 20010904//EN"
 "http://www.w3.org/TR/2001/REC-SVG-20010904/DTD/svg10.dtd">
<svg version="1.0" xmlns="http://www.w3.org/2000/svg"
 width="1050.000000pt" height="644.000000pt" viewBox="0 0 1050.000000 644.000000"
 preserveAspectRatio="xMidYMid meet">
<metadata>
Created by potrace 1.15, written by Peter Selinger 2001-2017
</metadata>
<g transform="translate(0.000000,644.000000) scale(0.100000,-0.100000)"
fill="#000000" stroke="none">
<path d="M9059 6400 c-42 -44 -62 -101 -53 -147 5 -28 -4 -42 -102 -154 -187
-213 -445 -483 -519 -542 -36 -29 -48 -33 -130 -38 -109 -8 -175 -32 -348
-131 -526 -301 -1085 -783 -1420 -1226 -158 -208 -329 -495 -428 -717 l-54
-120 -1 -110 c-1 -96 -6 -122 -34 -205 -195 -570 -416 -891 -650 -944 -38 -9
-103 -16 -146 -16 -299 0 -777 -154 -1069 -344 -47 -31 -87 -56 -88 -56 -2 0
-311 646 -687 1435 l-683 1435 -44 16 c-67 26 -205 15 -311 -24 -244 -91 -584
-335 -897 -646 -342 -339 -630 -542 -905 -638 -94 -33 -97 -33 -266 -32 -93 0
-182 4 -197 8 -16 4 -27 2 -27 -4 0 -19 1065 -1384 1095 -1402 62 -38 133 -50
255 -45 88 3 132 10 185 30 214 75 382 194 645 456 231 229 324 303 485 383
140 70 291 105 407 94 76 -7 182 -38 215 -64 12 -10 135 -256 290 -583 l269
-566 -67 -70 c-124 -131 -236 -319 -302 -509 -59 -170 -70 -241 -64 -394 6
-149 27 -250 77 -370 53 -129 98 -160 232 -160 103 0 125 12 202 109 112 140
270 225 518 278 75 16 150 18 763 18 650 0 687 1 835 22 530 77 920 264 1232
591 330 348 567 860 689 1496 140 725 527 1434 983 1798 104 83 157 139 184
195 8 18 22 35 31 38 34 13 221 17 319 6 97 -10 105 -13 136 -45 57 -56 147
-78 229 -55 55 15 133 93 142 142 10 51 -8 108 -47 153 -41 46 -77 64 -132 64
-24 0 -66 9 -93 21 -26 12 -100 38 -163 59 l-114 38 83 26 c241 76 618 150
710 139 115 -13 201 16 249 87 20 30 23 44 20 102 -3 58 -8 72 -33 99 -42 43
-76 59 -142 64 -76 6 -126 -9 -171 -49 -36 -33 -40 -34 -167 -44 -289 -25
-506 -34 -664 -30 -91 3 -174 9 -184 13 -37 15 -51 64 -49 165 3 178 53 292
242 550 96 131 112 162 113 219 1 64 -27 117 -78 146 -38 23 -53 25 -155 25
l-113 0 -38 -40z m186 -102 c44 -20 33 -53 -62 -178 -118 -155 -184 -270 -223
-387 -55 -167 -52 -359 7 -450 24 -36 91 -70 164 -82 92 -15 475 -13 714 4
273 20 277 18 65 -20 -423 -77 -699 -172 -822 -283 -53 -48 -60 -63 -74 -170
-9 -71 -20 -111 -48 -166 -31 -64 -46 -81 -117 -136 -196 -152 -360 -333 -524
-580 -204 -306 -363 -663 -470 -1051 -42 -151 -49 -161 -187 -255 -131 -88
-196 -98 -460 -67 -173 19 -164 9 -125 153 76 275 289 675 531 995 233 310
426 513 724 763 101 85 112 97 112 127 0 42 -17 55 -79 60 -58 4 -69 -2 -246
-153 -301 -257 -624 -632 -839 -972 -204 -322 -363 -682 -383 -869 l-6 -53
-51 6 c-28 3 -145 9 -259 13 l-208 6 -29 63 c-15 35 -42 99 -60 142 l-31 79
139 279 c187 374 319 616 407 749 197 298 486 607 805 863 115 92 135 112 138
139 5 46 -19 63 -86 63 -56 -1 -58 -2 -172 -90 -160 -126 -325 -278 -462 -428
-291 -316 -413 -501 -716 -1091 -109 -212 -111 -214 -118 -177 -13 71 2 156
44 253 81 185 280 516 425 707 295 388 801 833 1277 1121 245 149 350 178 488
139 86 -24 228 -97 317 -163 44 -33 97 -72 118 -87 69 -50 157 -27 157 40 0
28 -9 42 -52 81 -96 86 -361 245 -409 245 -6 0 67 80 162 178 158 161 303 320
433 475 50 59 55 76 41 145 -8 36 4 41 50 20z m230 -1540 c49 -17 114 -42 143
-56 41 -19 61 -23 93 -18 36 6 43 3 71 -24 28 -28 29 -32 15 -53 -19 -29 -44
-33 -52 -8 -3 12 -16 26 -27 32 -42 23 -196 39 -367 39 l-174 0 7 38 c3 20 6
45 6 55 0 10 11 29 24 42 l24 24 74 -20 c40 -12 113 -34 163 -51z m-7374 -765
c54 -91 66 -120 56 -129 -6 -6 -73 -46 -147 -89 -74 -44 -167 -98 -207 -121
l-71 -43 -52 86 c-28 47 -49 92 -46 99 10 26 385 329 395 319 1 -2 34 -57 72
-122z m659 -238 c0 -2 -84 -52 -186 -111 -148 -85 -188 -104 -195 -93 -32 49
-158 267 -161 277 -2 8 78 61 197 131 l200 117 72 -159 c40 -88 73 -161 73
-162z m-913 -403 c36 -62 64 -115 62 -117 -21 -20 -434 -254 -439 -248 -15 17
-170 282 -170 289 1 5 99 66 218 136 l217 127 23 -37 c12 -20 52 -88 89 -150z
m620 10 c35 -59 74 -125 87 -148 l25 -41 -211 -124 c-116 -68 -216 -125 -222
-127 -10 -2 -181 272 -181 290 0 9 414 257 430 257 6 1 38 -47 72 -107z
m-1233 -8 c14 -25 24 -50 21 -54 -3 -4 -92 -59 -197 -121 -106 -62 -203 -119
-214 -126 -20 -13 -23 -11 -43 22 -11 20 -21 39 -21 43 0 4 21 18 48 32 60 32
229 143 307 204 33 25 63 46 67 46 3 0 18 -21 32 -46z m1808 -225 c48 -107 88
-196 88 -199 0 -3 -42 -4 -93 -2 -63 2 -121 -3 -185 -16 l-93 -19 -69 118
c-39 65 -70 121 -70 126 1 11 312 193 325 189 5 -1 49 -90 97 -197z m-2152
-261 c36 -62 77 -134 92 -159 l27 -47 -92 -55 c-51 -30 -102 -59 -113 -65 -20
-11 -30 -1 -130 128 -60 77 -110 144 -112 148 -2 6 243 160 258 161 3 0 34
-50 70 -111z m698 -131 c81 -137 81 -137 59 -151 -117 -75 -422 -247 -424
-240 -2 5 -41 72 -87 149 -47 77 -81 144 -76 148 4 5 102 64 216 132 157 92
212 120 220 112 6 -7 48 -74 92 -150z m620 -12 l63 -104 -43 -38 c-24 -21
-108 -102 -187 -181 -118 -119 -145 -142 -156 -131 -13 15 -175 286 -178 300
-2 9 410 257 428 258 6 1 38 -46 73 -104z m3951 -105 c34 -80 68 -155 76 -167
29 -42 70 -51 240 -51 145 -1 298 -14 655 -56 323 -38 426 -32 554 33 44 23
81 40 82 38 5 -5 -60 -242 -102 -372 -313 -956 -850 -1396 -1804 -1480 -202
-17 -422 -19 -814 -5 -409 15 -581 -2 -804 -76 -155 -51 -331 -161 -430 -269
-50 -55 -60 -61 -79 -52 -42 19 -105 212 -124 384 -11 91 -10 109 11 204 57
271 161 462 356 656 290 287 745 474 1209 497 148 7 237 29 332 82 202 112
374 347 528 723 30 72 41 89 46 75 4 -11 35 -84 68 -164z m-4830 -506 c46 -80
81 -148 77 -151 -11 -11 -154 -4 -179 9 -35 18 -159 180 -147 192 11 11 152
95 160 95 3 0 43 -65 89 -145z"/>
</g>
</svg>
