 <svg version="1.0" xmlns="http://www.w3.org/2000/svg" width="700.000000pt" height="700.000000pt" viewBox="0 0 700.000000 700.000000" preserveAspectRatio="xMidYMid meet">
<metadata>
Created by potrace 1.12, written by Peter Selinger 2001-2015
</metadata>
<g transform="translate(0.000000,700.000000) scale(0.100000,-0.100000)" fill="#000000" stroke="none">
<path d="M4695 6211 c-71 -18 -132 -78 -150 -147 -11 -46 -13 -48 -63 -60
-103 -27 -214 -101 -248 -165 -44 -86 8 -226 160 -429 85 -113 356 -394 481
-498 50 -41 91 -78 93 -81 1 -3 -66 -4 -149 -2 -143 3 -280 -9 -318 -29 -9 -5
-37 -15 -62 -24 -25 -9 -72 -32 -104 -52 -32 -19 -62 -33 -66 -32 -4 2 -32 41
-63 87 -173 262 -518 587 -717 675 -30 13 -90 34 -133 46 -96 27 -198 22 -289
-15 l-58 -23 -51 31 c-48 30 -58 32 -142 32 -82 0 -96 -3 -138 -28 -93 -56
-148 -155 -148 -264 1 -113 65 -219 163 -270 110 -57 264 -27 334 64 67 87 77
113 78 199 0 69 -4 88 -29 138 -16 31 -27 58 -25 61 13 12 154 25 214 20 213
-20 502 -239 840 -635 54 -63 107 -125 118 -137 l20 -22 -52 -57 c-84 -92
-133 -204 -156 -356 -31 -205 -8 -412 76 -673 22 -67 23 -69 73 -179 20 -43
36 -80 36 -82 0 -2 -62 -4 -137 -4 -341 -1 -644 -128 -888 -375 -146 -147
-248 -305 -313 -485 -68 -188 -77 -244 -77 -485 0 -180 3 -234 18 -295 26
-103 61 -207 102 -295 25 -56 30 -76 21 -84 -6 -5 -45 -22 -86 -37 -187 -67
-350 -89 -442 -59 -183 60 -348 88 -528 89 -128 1 -153 -2 -215 -23 -97 -33
-155 -91 -155 -156 0 -38 6 -52 37 -85 69 -77 188 -132 375 -174 59 -13 23
-24 -104 -29 -73 -4 -167 -9 -209 -13 -53 -4 -96 -2 -145 9 -107 24 -203 30
-282 18 -40 -6 -80 -15 -90 -20 -9 -5 -46 -19 -82 -31 -101 -35 -212 -89 -205
-100 8 -13 66 -12 125 1 114 25 259 48 300 49 25 0 99 -14 165 -31 119 -31
123 -32 350 -30 127 0 266 -4 310 -9 203 -25 404 -31 1145 -36 1047 -7 1012
-7 1105 12 64 14 123 17 295 15 460 -6 797 35 1025 124 155 61 254 125 352
228 85 90 113 136 161 264 l36 98 0 170 c1 142 -3 188 -23 275 -42 192 -115
386 -233 625 -151 304 -319 558 -693 1049 -41 54 -75 104 -75 110 0 6 75 35
166 65 395 129 576 272 599 472 18 148 -74 325 -225 435 l-44 32 -1 89 c0 77
-4 95 -29 146 -37 71 -100 131 -174 164 -48 21 -68 24 -128 21 -106 -7 -182
-54 -260 -161 l-20 -29 -136 139 c-312 319 -538 598 -598 739 -32 74 -27 107
25 163 47 50 170 120 185 105 4 -5 13 -26 20 -47 27 -86 116 -150 208 -150 62
0 92 13 145 62 91 85 100 198 25 304 -44 61 -146 97 -223 78z m164 -116 l43
-46 -4 -71 c-4 -67 -6 -72 -44 -108 -75 -70 -170 -62 -232 19 -22 29 -32 53
-30 70 4 37 30 33 49 -8 35 -75 116 -95 169 -42 50 50 52 104 4 160 -22 26
-33 31 -71 31 -41 0 -51 -5 -84 -40 -64 -67 -104 -47 -42 21 50 55 85 71 148
64 44 -4 56 -10 94 -50z m-1946 -650 c20 -8 37 -21 37 -28 0 -7 -16 -28 -35
-47 -27 -26 -38 -31 -47 -22 -32 32 -125 0 -158 -53 -34 -55 -22 -146 24 -184
24 -20 84 -30 121 -20 50 14 95 73 95 125 0 24 -8 56 -17 72 -17 30 -17 31 12
54 16 13 34 23 39 23 19 0 47 -52 55 -103 16 -104 -22 -190 -109 -243 -58 -35
-150 -39 -209 -9 -143 72 -173 275 -59 389 67 68 159 85 251 46z m2548 -570
c21 -13 52 -46 71 -72 29 -42 33 -57 36 -125 5 -92 -16 -146 -78 -202 -80 -72
-212 -73 -305 -2 -18 14 -36 22 -39 18 -3 -5 2 -28 11 -53 21 -63 14 -180 -17
-239 -38 -75 -76 -115 -142 -150 -55 -30 -72 -34 -138 -35 -67 0 -82 4 -138
34 -107 58 -163 149 -170 277 -4 73 -1 88 22 140 37 80 89 140 149 172 45 23
63 27 137 26 94 0 138 -16 217 -80 46 -38 57 -34 43 17 -36 123 41 271 154
300 54 14 147 1 187 -26z m-831 -171 c0 -3 -24 -27 -53 -54 -74 -68 -108 -145
-115 -261 -6 -105 6 -157 54 -239 66 -113 147 -172 267 -195 128 -25 259 16
349 109 51 53 108 169 116 237 l7 53 80 1 c94 1 150 23 215 86 l41 40 48 -41
c117 -99 172 -208 156 -313 -11 -70 -29 -85 -146 -118 -158 -45 -320 -72 -354
-59 -24 9 -27 14 -21 40 7 36 -17 42 -34 9 -29 -54 26 -99 119 -99 52 0 201
30 270 55 49 17 67 11 36 -12 -48 -36 -252 -125 -393 -172 -173 -57 -186 -63
-224 -99 -57 -53 -30 -120 126 -316 191 -241 372 -507 543 -800 57 -99 62
-111 48 -126 -27 -30 -9 -64 21 -39 20 16 23 13 83 -126 29 -66 56 -127 60
-135 17 -33 92 -281 113 -375 33 -149 31 -340 -5 -450 -118 -360 -478 -533
-1149 -552 -93 -3 -168 -1 -168 3 0 5 28 27 63 49 93 60 288 254 359 359 122
182 202 387 229 591 17 129 7 375 -21 495 -93 408 -353 742 -722 924 -59 30
-138 61 -175 71 -37 10 -73 23 -79 29 -13 12 -80 143 -112 216 -50 118 -88
251 -112 396 -25 150 -25 193 -1 327 20 110 68 226 127 303 l28 36 31 -38 c39
-46 53 -31 22 24 -22 41 -22 41 -2 57 64 50 275 134 275 109z m-351 -1550
c163 -30 314 -91 421 -168 237 -170 333 -281 447 -514 50 -102 75 -185 105
-342 30 -162 15 -438 -32 -583 -23 -69 -25 -73 -71 -172 -84 -179 -253 -370
-433 -489 -101 -66 -141 -87 -236 -119 -151 -52 -214 -62 -385 -60 -167 1
-231 12 -379 65 -280 101 -528 327 -660 603 -100 207 -131 342 -130 565 0 237
47 431 152 625 78 146 248 331 381 419 73 48 228 126 249 126 6 0 32 7 58 16
130 44 360 57 513 28z m-1204 -2051 c50 -76 196 -222 263 -263 28 -17 52 -36
52 -42 0 -6 -24 -7 -62 -4 -35 3 -184 11 -333 16 -543 21 -836 61 -1140 155
-101 32 -210 86 -210 105 0 25 61 50 143 60 147 17 368 -12 582 -76 67 -20
227 -22 320 -5 73 14 288 85 304 101 21 21 45 8 81 -47z"></path>
<path d="M5330 4674 c-17 -20 -2 -67 23 -72 24 -5 47 16 47 42 0 42 -45 61
-70 30z"></path>
<path d="M4802 4407 c-50 -53 -12 -127 66 -127 48 0 72 25 72 75 0 68 -92 102
-138 52z"></path>
<path d="M4365 4030 c-4 -7 -3 -16 3 -22 14 -14 47 -6 47 12 0 18 -40 26 -50
10z"></path>
<path d="M4690 3894 c-11 -12 -10 -18 3 -32 16 -15 18 -15 34 0 13 14 14 20 3
32 -7 9 -16 16 -20 16 -4 0 -13 -7 -20 -16z"></path>
<path d="M4510 3845 c0 -8 5 -15 10 -15 6 0 10 7 10 15 0 8 -4 15 -10 15 -5 0
-10 -7 -10 -15z"></path>
<path d="M4397 3683 c-11 -10 -8 -41 4 -49 6 -3 18 1 27 9 13 13 13 19 2 31
-14 17 -23 20 -33 9z"></path>
<path d="M4834 3555 c-7 -18 13 -45 33 -45 19 0 28 27 13 45 -16 19 -39 19
-46 0z"></path>
<path d="M4580 3405 c-9 -11 -10 -19 -3 -26 17 -17 48 -6 48 16 0 25 -28 31
-45 10z"></path>
<path d="M4984 3135 c-8 -20 4 -35 26 -35 25 0 35 17 20 35 -16 19 -39 19 -46
0z"></path>
<path d="M5145 3080 c-10 -17 20 -44 40 -36 9 3 15 14 13 23 -4 21 -43 30 -53
13z"></path>
<path d="M5015 2930 c-3 -5 1 -10 10 -10 9 0 13 5 10 10 -3 6 -8 10 -10 10 -2
0 -7 -4 -10 -10z"></path>
<path d="M5284 2865 c-4 -9 0 -23 9 -32 21 -21 49 -9 45 19 -4 28 -45 38 -54
13z"></path>
<path d="M5290 2605 c-10 -12 -10 -18 0 -30 16 -19 39 -19 46 0 6 15 -11 45
-26 45 -4 0 -13 -7 -20 -15z"></path>
<path d="M5494 2535 c-9 -22 22 -53 37 -38 15 15 7 47 -14 51 -9 2 -20 -4 -23
-13z"></path>
<path d="M5585 2350 c4 -6 11 -8 16 -5 14 9 11 15 -7 15 -8 0 -12 -5 -9 -10z"></path>
<path d="M5454 2215 c-4 -9 -2 -21 4 -27 15 -15 44 -1 40 19 -4 23 -36 29 -44
8z"></path>
<path d="M5704 2196 c-9 -24 4 -48 23 -44 12 2 18 12 18 28 0 29 -32 41 -41
16z"></path>
<path d="M5595 2090 c-4 -7 -3 -16 3 -22 14 -14 45 -2 40 15 -6 16 -34 21 -43
7z"></path>
<path d="M5654 1915 c-4 -9 -2 -21 4 -27 15 -15 44 -1 40 19 -4 23 -36 29 -44
8z"></path>
<path d="M5884 1915 c-4 -9 -2 -21 4 -27 15 -15 44 -1 40 19 -4 23 -36 29 -44
8z"></path>
<path d="M5477 1874 c-8 -8 1 -24 14 -24 5 0 9 7 9 15 0 15 -12 20 -23 9z"></path>
<path d="M5764 1785 c-4 -9 -2 -21 4 -27 15 -15 44 -1 40 19 -4 23 -36 29 -44
8z"></path>
<path d="M5585 1741 c-3 -5 -1 -12 5 -16 5 -3 10 1 10 9 0 18 -6 21 -15 7z"></path>
<path d="M5904 1629 c-10 -17 23 -46 37 -32 7 7 9 19 6 27 -7 18 -33 21 -43 5z"></path>
<path d="M5454 1605 c-4 -9 -2 -21 4 -27 15 -15 44 -1 40 19 -4 23 -36 29 -44
8z"></path>
<path d="M5594 1475 c-4 -9 -2 -21 4 -27 15 -15 44 -1 40 19 -4 23 -36 29 -44
8z"></path>
<path d="M5654 1305 c-4 -9 -2 -21 4 -27 15 -15 44 -1 40 19 -4 23 -36 29 -44
8z"></path>
<path d="M5475 1250 c4 -6 11 -8 16 -5 14 9 11 15 -7 15 -8 0 -12 -5 -9 -10z"></path>
<path d="M5807 1153 c-11 -10 -8 -41 4 -49 6 -3 18 1 27 9 13 13 13 19 2 31
-14 17 -23 20 -33 9z"></path>
<path d="M5344 1115 c-4 -9 -2 -21 4 -27 15 -15 44 -1 40 19 -4 23 -36 29 -44
8z"></path>
<path d="M5170 1095 c-10 -11 -10 -19 -2 -27 15 -15 44 -2 40 19 -4 23 -22 27
-38 8z"></path>
<path d="M5220 1024 c-11 -12 -10 -18 3 -32 16 -15 18 -15 34 0 13 14 14 20 3
32 -7 9 -16 16 -20 16 -4 0 -13 -7 -20 -16z"></path>
<path d="M5490 994 c-11 -12 -10 -18 3 -32 16 -15 18 -15 34 0 13 14 14 20 3
32 -7 9 -16 16 -20 16 -4 0 -13 -7 -20 -16z"></path>
<path d="M5226 881 c-4 -5 -2 -12 3 -15 5 -4 12 -2 15 3 4 5 2 12 -3 15 -5 4
-12 2 -15 -3z"></path>
<path d="M5054 855 c-4 -9 -2 -21 4 -27 15 -15 44 -1 40 19 -4 23 -36 29 -44
8z"></path>
<path d="M4015 2921 c-184 -36 -383 -126 -516 -233 -144 -116 -236 -250 -280
-408 -39 -142 -39 -141 45 -521 22 -97 82 -271 123 -355 45 -91 154 -216 235
-268 223 -142 509 -122 866 60 124 63 305 179 338 215 27 30 8 35 -28 7 -151
-115 -411 -243 -605 -299 -108 -31 -332 -34 -408 -4 -169 64 -299 200 -372
385 -56 145 -94 309 -113 498 -13 126 -3 224 31 299 11 23 19 44 19 47 0 3 17
33 37 68 88 150 254 277 480 366 126 49 204 64 338 65 208 2 307 -44 477 -221
95 -100 187 -221 227 -301 36 -70 53 -170 40 -233 -10 -44 -21 -63 -70 -112
-66 -66 -91 -69 -39 -4 63 78 74 147 39 250 -53 156 -237 382 -397 488 -156
103 -428 90 -696 -33 -198 -92 -357 -266 -408 -446 -47 -166 1 -477 112 -726
37 -82 117 -179 185 -223 104 -69 180 -87 334 -79 133 6 241 37 396 112 101
49 305 180 305 196 0 11 -9 7 -150 -81 -118 -72 -169 -97 -292 -141 -190 -68
-377 -73 -505 -14 -63 28 -166 127 -208 199 -55 94 -115 283 -134 419 -14 97
-14 248 -1 305 43 185 220 364 452 456 157 62 258 79 390 66 131 -13 170 -33
283 -145 207 -204 295 -368 271 -500 -9 -49 -73 -117 -134 -143 -166 -72 -401
-87 -590 -38 -199 51 -358 150 -403 251 -38 82 -22 113 99 189 136 84 147 89
216 84 50 -3 69 -9 99 -33 39 -31 109 -115 167 -199 18 -28 36 -44 38 -38 7
22 -80 144 -159 223 -82 83 -116 98 -195 83 -70 -13 -238 -108 -285 -162 -29
-33 -31 -39 -26 -94 3 -32 2 -58 -3 -58 -14 0 -35 64 -35 107 0 50 22 77 115
138 149 98 238 127 319 105 57 -15 177 -134 256 -254 33 -49 61 -84 63 -78 4
14 -9 39 -74 138 -62 93 -132 169 -194 210 -39 26 -52 29 -119 28 -69 -1 -84
-5 -160 -43 -47 -24 -96 -51 -110 -60 -14 -10 -45 -31 -69 -46 -78 -52 -101
-132 -61 -216 76 -157 283 -289 549 -352 80 -18 124 -22 280 -22 160 0 197 3
269 23 160 42 281 121 323 210 17 37 22 66 22 132 1 112 -26 180 -139 348 -90
134 -303 335 -400 377 -125 56 -291 68 -460 36z"></path>
<path d="M1955 1060 c4 -6 11 -8 16 -5 14 9 11 15 -7 15 -8 0 -12 -5 -9 -10z"></path>
<path d="M2306 1011 c-4 -5 -2 -12 3 -15 5 -4 12 -2 15 3 4 5 2 12 -3 15 -5 4
-12 2 -15 -3z"></path>
<path d="M2147 1003 c-11 -10 -8 -41 4 -49 6 -3 18 1 27 9 13 13 13 19 2 31
-14 17 -23 20 -33 9z"></path>
<path d="M2950 994 c-11 -12 -10 -18 3 -32 16 -15 18 -15 34 0 13 14 14 20 3
32 -7 9 -16 16 -20 16 -4 0 -13 -7 -20 -16z"></path>
<path d="M2644 965 c-7 -18 3 -35 21 -35 21 0 28 19 15 35 -16 19 -29 19 -36
0z"></path>
<path d="M3154 915 c-7 -18 3 -35 21 -35 21 0 28 19 15 35 -16 19 -29 19 -36
0z"></path>
<path d="M2785 890 c-4 -7 -3 -16 3 -22 14 -14 45 -2 40 15 -6 16 -34 21 -43
7z"></path>
<path d="M892 4377 l-283 -283 15 -60 c8 -32 24 -95 36 -139 12 -44 27 -104
35 -134 8 -30 18 -58 23 -63 5 -5 33 -8 63 -6 42 2 53 6 50 18 -2 8 -10 40
-18 70 -8 30 -21 82 -29 115 -8 33 -21 83 -30 110 l-16 50 229 234 229 234 55
-11 c30 -7 95 -24 144 -38 50 -14 124 -34 165 -45 89 -24 141 -38 275 -74 91
-25 105 -26 150 -15 45 11 224 59 405 109 36 10 103 28 150 41 47 12 94 25
106 30 18 7 52 -23 254 -225 l232 -232 -20 -84 c-12 -46 -30 -120 -42 -164
-33 -123 -33 -120 26 -123 35 -2 54 2 63 12 11 13 24 60 62 211 5 22 19 71 30
109 l21 68 -283 284 c-199 200 -288 282 -299 278 -8 -4 -49 -15 -90 -26 -133
-35 -172 -45 -345 -93 -328 -89 -317 -87 -355 -76 -50 15 -147 41 -205 57 -47
12 -101 26 -282 75 -43 11 -105 27 -138 35 -33 8 -68 19 -77 24 -10 6 -19 10
-20 10 -2 0 -131 -127 -286 -283z"></path>
<path d="M1970 3700 c-113 -225 -208 -410 -213 -410 -4 0 -73 132 -153 293
-80 160 -147 294 -149 296 -2 2 -38 -66 -80 -150 l-76 -154 -406 -5 -407 -5
-2 -57 -2 -58 444 0 444 0 41 81 c22 45 42 79 44 77 2 -2 69 -135 149 -296 80
-160 149 -292 154 -291 4 0 99 186 210 412 112 227 207 412 212 412 4 0 52
-88 107 -195 l98 -195 503 -3 503 -2 -3 57 -3 58 -465 5 -464 5 -133 265 c-73
146 -136 266 -141 268 -4 1 -100 -182 -212 -408z"></path>
<path d="M826 3323 c-4 -4 244 -258 551 -565 l558 -558 555 555 c305 305 555
558 555 562 0 4 -34 8 -75 8 l-75 0 -477 -480 -476 -480 -479 476 -478 477
-76 6 c-42 3 -79 2 -83 -1z"></path>
</g>
</svg>