<?xml version="1.0" standalone="no"?>
<!DOCTYPE svg PUBLIC "-//W3C//DTD SVG 20010904//EN"
 "http://www.w3.org/TR/2001/REC-SVG-20010904/DTD/svg10.dtd">
<svg version="1.0" xmlns="http://www.w3.org/2000/svg"
 width="830.000000pt" height="622.000000pt" viewBox="0 0 830.000000 622.000000"
 preserveAspectRatio="xMidYMid meet">
<metadata>
Created by potrace 1.15, written by Peter Selinger 2001-2017
</metadata>
<g transform="translate(0.000000,622.000000) scale(0.100000,-0.100000)"
fill="#000000" stroke="none">
<path d="M3415 6203 c25 -63 24 -70 -13 -105 -143 -131 -353 -204 -687 -239
-49 -5 -146 -13 -215 -19 -190 -15 -360 -38 -430 -58 -19 -6 -46 -14 -60 -17
-14 -4 -34 -10 -45 -15 -11 -4 -46 -18 -79 -31 -65 -25 -180 -98 -238 -150
l-38 -34 79 -235 c43 -129 125 -377 181 -550 57 -173 107 -319 112 -324 4 -6
8 -18 8 -28 0 -10 4 -26 9 -36 5 -9 33 -93 63 -185 29 -93 58 -171 65 -174 6
-2 36 16 66 40 96 78 247 155 350 178 20 5 56 14 80 19 79 20 226 37 502 60
183 15 328 36 408 59 20 6 52 15 70 20 86 23 208 84 283 142 28 21 57 39 65
39 15 0 140 -366 139 -408 0 -12 -61 -204 -135 -427 -74 -223 -135 -407 -135
-410 0 -10 74 -35 81 -28 7 8 57 154 169 503 35 107 65 197 68 200 9 11 32
-51 138 -368 61 -183 113 -334 116 -337 5 -6 78 22 78 30 0 3 -58 181 -130
395 -71 215 -132 407 -136 428 -4 29 7 74 51 207 65 198 75 225 84 225 3 0 17
-10 31 -23 55 -51 168 -115 275 -155 111 -43 278 -72 520 -92 175 -15 315 -29
385 -39 61 -9 93 -16 195 -39 106 -24 263 -105 355 -182 26 -22 52 -40 58 -40
12 0 20 21 73 185 22 72 45 138 50 147 5 10 9 27 9 37 0 11 5 23 10 26 6 3 10
17 10 30 0 13 5 27 10 30 6 3 10 17 10 30 0 13 5 27 10 30 6 3 10 16 10 29 0
12 4 26 8 32 5 5 37 97 71 204 35 107 67 203 72 212 5 10 9 27 9 37 0 11 5 23
10 26 6 3 10 17 10 30 0 13 5 27 10 30 6 3 10 17 10 30 0 13 5 27 10 30 6 3
10 16 10 29 0 12 4 26 8 31 5 6 14 30 22 55 7 25 26 84 41 131 16 48 29 95 29
106 0 36 -161 152 -267 193 -32 12 -67 26 -78 30 -11 5 -31 11 -45 15 -14 3
-41 11 -60 16 -79 22 -231 43 -420 59 -349 29 -389 34 -568 79 -53 14 -170 60
-200 80 -13 8 -37 22 -54 31 -16 8 -52 33 -79 55 -37 31 -47 45 -43 60 3 11 8
32 11 48 5 26 4 27 -39 27 l-45 0 -276 -832 c-152 -458 -291 -878 -309 -933
-28 -90 -51 -137 -61 -124 -2 2 -144 428 -317 947 l-313 942 -50 0 c-43 0 -48
-2 -42 -17z m84 -251 c23 -68 41 -129 41 -136 0 -17 -123 -107 -190 -140 -43
-21 -56 -23 -65 -14 -16 18 -97 267 -91 277 3 5 32 21 63 36 57 27 164 102
172 118 9 21 33 -27 70 -141z m1405 104 c21 -19 50 -40 65 -47 14 -7 38 -21
53 -31 14 -10 33 -18 41 -18 8 0 20 -7 27 -15 11 -13 5 -40 -34 -157 -37 -111
-44 -143 -34 -149 16 -10 87 -33 151 -48 116 -27 137 -34 137 -44 0 -11 -3
-22 -50 -163 -43 -130 -42 -131 28 -138 242 -25 253 -27 246 -50 -3 -11 -24
-76 -47 -143 -22 -68 -38 -125 -35 -128 9 -9 119 -25 171 -25 27 0 69 -5 94
-11 36 -10 47 -9 53 1 13 21 101 292 97 297 -5 4 -117 17 -249 30 -38 3 -68
10 -68 15 0 5 20 70 45 145 28 81 42 140 37 145 -5 5 -60 13 -123 18 -140 12
-185 22 -182 41 9 51 89 269 100 273 7 3 25 1 39 -4 14 -6 48 -10 75 -10 43 0
188 -19 197 -25 1 -1 -18 -64 -43 -138 -25 -75 -45 -140 -45 -145 0 -5 44 -12
98 -16 160 -10 222 -18 222 -28 0 -5 -20 -70 -45 -145 -25 -75 -44 -142 -41
-150 3 -7 18 -13 34 -13 16 0 42 -4 58 -9 16 -5 49 -14 74 -21 25 -7 62 -19
83 -26 20 -8 41 -14 46 -14 4 0 29 65 56 145 29 89 53 145 61 145 30 0 106
-43 207 -119 36 -27 47 -41 47 -62 0 -16 -4 -31 -10 -34 -5 -3 -10 -17 -10
-30 0 -13 -4 -27 -10 -30 -5 -3 -10 -17 -10 -30 0 -13 -4 -27 -10 -30 -5 -3
-10 -17 -10 -30 0 -13 -4 -27 -10 -30 -5 -3 -10 -17 -10 -30 0 -39 -23 -35
-90 16 -64 49 -186 116 -194 108 -7 -7 -96 -277 -96 -292 0 -7 19 -21 43 -32
51 -22 175 -105 201 -134 19 -21 19 -22 -24 -154 -53 -161 -60 -170 -97 -135
-31 28 -134 97 -173 115 -58 28 -58 28 -107 -117 -24 -74 -48 -139 -53 -143
-4 -5 -16 -4 -26 1 -11 6 -39 16 -64 22 -25 7 -56 16 -70 20 -14 4 -51 14 -83
21 -68 15 -67 -1 -11 174 44 139 42 136 84 126 19 -4 60 -14 90 -21 30 -6 83
-21 117 -33 35 -11 64 -19 66 -16 2 2 25 69 51 148 57 175 75 153 -180 220
-85 23 -79 30 -134 -139 -55 -167 -44 -154 -114 -146 -34 4 -103 11 -153 15
-51 4 -96 10 -99 14 -4 4 14 70 39 148 26 77 45 144 42 148 -2 5 -40 11 -82
15 -188 15 -218 19 -226 26 -4 4 13 68 38 143 25 75 45 143 45 152 0 9 -9 15
-21 15 -12 0 -40 5 -63 11 -22 6 -59 15 -81 21 -22 6 -59 17 -83 26 -31 11
-46 12 -54 4 -12 -12 -97 -258 -98 -282 0 -10 17 -20 48 -29 26 -7 58 -17 72
-21 22 -8 75 -20 153 -35 15 -3 27 -10 27 -16 0 -5 -20 -70 -45 -145 -25 -74
-45 -138 -45 -143 0 -9 65 -19 185 -27 112 -7 125 -11 125 -35 0 -11 -19 -77
-42 -146 l-42 -125 -86 6 c-172 11 -229 18 -233 30 -3 7 15 72 40 146 48 145
48 145 -17 155 -42 7 -94 21 -178 48 -38 13 -65 17 -70 11 -5 -5 -28 -69 -52
-141 -25 -77 -49 -133 -56 -133 -20 0 -134 65 -191 109 -33 26 -53 50 -53 62
0 32 82 269 93 269 6 0 34 -18 62 -39 68 -52 186 -114 196 -104 4 4 28 71 54
148 53 158 56 142 -43 193 -82 41 -162 108 -162 135 1 42 88 282 102 279 7 -2
24 -14 38 -26 47 -43 205 -134 215 -124 6 6 95 278 95 292 0 7 -30 28 -67 47
-84 43 -183 115 -183 136 -1 4 19 68 42 140 30 92 48 133 58 133 8 0 32 -16
54 -34z m-1978 -353 c24 -70 44 -131 44 -134 0 -7 -136 -26 -239 -34 -41 -3
-77 -8 -80 -10 -2 -3 17 -68 42 -145 26 -78 47 -144 47 -149 0 -4 -35 -11 -77
-15 -43 -5 -111 -11 -150 -15 -40 -3 -77 -11 -82 -16 -6 -6 6 -57 34 -140 25
-71 45 -137 45 -146 0 -12 -16 -20 -62 -29 -35 -6 -74 -16 -88 -20 -14 -5 -46
-14 -71 -21 -87 -24 -86 -18 -33 -180 26 -79 49 -146 51 -148 1 -2 26 4 55 13
71 24 144 42 196 51 24 4 46 14 49 22 3 8 -13 71 -36 138 -22 68 -41 130 -41
138 0 17 76 37 143 37 47 0 157 16 165 25 3 2 -16 68 -41 145 -26 77 -47 141
-47 144 0 3 97 15 257 32 29 3 55 9 58 14 3 5 -15 70 -40 145 -25 74 -45 139
-45 144 0 8 27 16 138 42 26 6 73 20 105 31 32 11 60 18 61 16 10 -14 95 -291
91 -297 -5 -9 -69 -33 -130 -49 -22 -6 -59 -15 -81 -21 -23 -6 -51 -11 -63
-11 -11 0 -21 -4 -21 -10 0 -9 17 -64 71 -229 11 -35 17 -67 12 -71 -8 -8 -56
-13 -230 -26 -46 -4 -83 -8 -83 -11 0 -2 20 -64 45 -139 40 -119 51 -162 43
-165 -2 0 -48 -5 -103 -9 -172 -15 -205 -21 -205 -37 0 -8 18 -68 40 -133 45
-133 48 -150 22 -150 -10 0 -22 -4 -28 -9 -5 -5 -27 -11 -49 -15 -85 -12 -115
-19 -121 -27 -3 -5 -15 -9 -28 -9 -12 0 -27 -5 -33 -11 -6 -6 -16 -9 -21 -5
-5 3 -28 63 -51 133 -23 71 -46 134 -50 142 -7 11 -22 6 -77 -23 -38 -20 -96
-56 -129 -81 -33 -25 -62 -45 -66 -45 -3 0 -16 33 -29 73 -13 39 -30 92 -38
117 -33 104 -33 99 -4 129 32 33 132 100 184 124 20 10 40 22 44 28 8 14 -86
299 -99 299 -19 0 -123 -61 -190 -111 -37 -28 -70 -50 -72 -48 -12 13 -95 284
-90 298 7 22 104 92 188 136 37 20 67 38 67 40 0 3 -21 66 -46 141 -25 75 -43
143 -40 150 3 8 14 14 25 14 11 0 22 4 25 9 3 5 20 11 38 14 18 2 60 12 93 21
33 9 75 16 93 14 l34 -3 44 -130 c24 -71 44 -135 44 -142 0 -7 -17 -15 -37
-18 -21 -4 -65 -13 -98 -22 -33 -8 -72 -17 -88 -20 -15 -3 -30 -9 -33 -14 -3
-5 -14 -9 -25 -9 -12 0 -19 -7 -19 -17 1 -25 85 -272 97 -284 7 -7 23 -5 49 4
21 8 59 20 84 26 25 7 59 17 76 22 17 5 45 9 62 9 22 0 32 5 32 15 0 9 -20 77
-45 151 -25 74 -43 139 -40 143 5 10 78 19 210 27 50 4 94 9 98 14 4 4 -13 69
-38 145 -25 75 -45 138 -43 140 8 6 153 25 200 26 29 1 64 4 78 9 16 4 30 2
39 -6 8 -7 33 -70 57 -141z m3271 61 c32 -9 74 -20 93 -26 19 -5 45 -12 57
-15 12 -3 24 -12 27 -19 5 -12 -77 -280 -89 -292 -2 -2 -18 3 -37 12 -42 19
-180 56 -211 56 -13 0 -31 6 -41 13 -16 12 -15 19 19 122 56 171 53 165 91
165 18 0 59 -7 91 -16z m-2547 -266 c0 -2 23 -68 50 -148 34 -100 46 -148 39
-156 -34 -41 -212 -154 -243 -154 -11 0 -106 259 -106 290 0 5 17 18 38 28 83
42 122 66 163 103 38 33 58 46 59 37z m-115 -613 c40 -121 51 -145 67 -145 26
0 120 52 186 102 39 30 56 38 64 30 6 -6 31 -69 54 -139 l43 -128 -40 -38
c-37 -33 -103 -76 -182 -116 -39 -20 -46 -9 -91 129 -20 64 -41 122 -46 130
-7 12 -18 11 -72 -7 -78 -26 -133 -40 -178 -48 -65 -10 -65 -9 -15 -159 25
-75 43 -141 41 -145 -5 -8 -73 -16 -231 -28 -62 -4 -83 -2 -91 8 -16 21 -96
270 -89 277 3 3 49 9 103 13 142 11 212 21 212 31 0 4 -21 72 -47 149 -50 151
-50 158 7 159 27 1 178 41 220 58 14 6 28 11 31 11 3 1 27 -64 54 -144z"/>
<path d="M3244 3664 c-25 -26 -34 -45 -34 -70 0 -29 -13 -49 -82 -126 -126
-140 -259 -278 -280 -289 -11 -6 -43 -12 -72 -15 -69 -5 -181 -60 -337 -165
-66 -44 -128 -86 -137 -94 -9 -8 -55 -44 -102 -82 -137 -109 -299 -271 -412
-411 -52 -64 -181 -270 -224 -357 -61 -123 -78 -173 -72 -216 6 -40 -1 -69
-41 -179 -87 -234 -197 -398 -309 -457 -28 -15 -75 -25 -144 -33 -119 -12
-222 -28 -258 -39 -14 -5 -43 -14 -65 -20 -43 -14 -78 -28 -165 -69 -175 -82
-344 -246 -419 -407 -37 -80 -43 -96 -70 -201 -30 -116 9 -310 78 -387 20 -22
33 -27 70 -27 42 0 49 4 110 68 98 101 167 131 366 159 94 14 137 14 295 4
267 -16 387 -12 590 20 269 42 482 149 650 326 79 82 112 126 167 218 107 180
177 373 233 645 21 99 60 241 79 285 5 11 15 36 22 55 97 265 272 524 464 683
33 28 71 66 84 86 14 20 29 39 35 43 6 4 68 8 137 8 124 0 126 0 165 -30 51
-38 89 -39 134 -1 30 25 35 34 34 72 -2 57 -45 99 -104 99 -21 0 -41 4 -44 8
-3 5 -37 19 -75 32 -39 13 -71 27 -71 31 0 11 112 43 273 78 78 18 132 25 199
25 56 1 70 5 92 25 37 35 36 98 0 135 -34 33 -101 37 -128 7 -26 -28 -145 -41
-398 -44 -261 -2 -254 -5 -251 104 1 39 8 87 15 107 17 48 69 139 114 198 78
102 88 133 58 180 -19 28 -73 54 -112 54 -15 0 -37 -13 -58 -36z m106 -42 c27
-22 25 -29 -61 -147 -55 -78 -85 -134 -108 -204 -16 -49 -14 -186 3 -219 28
-55 43 -57 355 -55 185 2 281 -1 271 -7 -8 -5 -28 -10 -44 -10 -16 0 -45 -4
-65 -9 -20 -5 -70 -17 -110 -26 -154 -34 -302 -96 -343 -142 -20 -23 -38 -78
-38 -116 0 -47 -43 -110 -115 -167 -92 -73 -184 -178 -269 -305 -60 -91 -153
-266 -186 -350 -42 -108 -80 -224 -95 -290 -9 -42 -82 -108 -161 -145 -73 -35
-62 -35 -254 -12 l-55 7 -3 38 c-4 45 24 129 88 263 71 148 143 261 268 424
60 77 187 213 269 287 48 43 104 94 126 114 43 38 46 69 7 69 -30 0 -144 -97
-275 -231 -132 -137 -144 -151 -232 -270 -172 -235 -288 -470 -311 -629 -7
-44 -8 -45 -42 -43 -19 1 -93 5 -163 9 l-129 7 -25 56 c-13 31 -29 64 -34 73
-5 10 -9 27 -9 38 0 20 189 398 249 499 128 214 305 417 501 575 99 79 110 94
85 112 -21 15 -38 10 -90 -30 -78 -61 -112 -92 -225 -205 -188 -190 -279 -321
-455 -665 -45 -88 -87 -162 -94 -164 -14 -5 -16 150 -2 176 6 9 28 53 49 97
103 209 209 352 402 546 213 216 449 395 641 488 114 55 160 54 279 -2 50 -23
124 -71 154 -99 29 -26 56 -32 73 -15 12 12 12 18 3 34 -18 29 -117 99 -190
135 -36 18 -67 34 -69 35 -3 2 38 47 90 101 53 53 137 144 188 202 82 92 92
108 88 135 -2 16 -2 36 0 43 7 18 37 15 63 -6z m91 -872 c52 -17 102 -35 111
-40 10 -6 32 -10 50 -10 32 0 68 -24 68 -45 0 -6 -12 -18 -26 -25 -23 -13 -27
-12 -42 7 -25 31 -82 43 -209 43 l-113 0 0 28 c0 35 25 72 49 72 10 0 61 -14
112 -30z m-1891 -1157 c72 -181 92 -206 168 -201 43 3 215 -8 322 -22 240 -30
264 -31 319 -16 29 8 71 26 92 40 36 24 59 32 59 21 0 -4 -13 -53 -41 -155
-27 -95 -26 -92 -80 -232 -6 -15 -31 -67 -56 -115 -166 -324 -423 -515 -783
-582 -148 -27 -241 -32 -585 -29 -378 3 -396 1 -530 -44 -74 -26 -164 -86
-206 -137 -17 -22 -38 -42 -46 -45 -42 -16 -79 55 -103 197 -14 84 -8 131 32
250 68 201 228 372 442 473 132 61 292 104 396 104 213 2 356 103 473 335 20
39 43 88 52 110 9 22 21 48 26 57 5 10 9 25 9 33 0 32 19 12 40 -42z"/>
<path d="M4854 3681 c-41 -25 -47 -35 -47 -82 0 -32 14 -60 80 -157 44 -64 90
-144 102 -178 27 -78 28 -167 2 -193 -36 -36 -151 -37 -550 -6 -36 2 -65 12
-90 29 -51 36 -85 34 -127 -8 -44 -44 -45 -83 -5 -128 28 -32 32 -33 113 -34
46 -1 110 -7 143 -14 85 -17 225 -50 255 -60 14 -4 33 -11 44 -14 29 -10 5
-30 -54 -46 -28 -8 -53 -18 -56 -22 -3 -4 -19 -8 -35 -8 -112 0 -178 -108
-108 -176 39 -37 105 -41 141 -7 56 53 328 52 328 -1 0 -8 39 -50 88 -93 113
-101 161 -152 226 -238 89 -118 163 -250 236 -420 46 -110 96 -274 120 -400
24 -124 78 -316 100 -357 6 -10 10 -23 10 -29 0 -25 105 -228 160 -310 112
-166 256 -295 420 -375 132 -65 211 -88 414 -124 34 -6 231 -10 466 -10 224 0
420 -4 436 -9 16 -5 53 -14 83 -21 87 -20 166 -66 225 -132 l54 -59 68 3 69 3
32 64 c17 36 34 81 38 100 14 83 17 195 5 235 -6 23 -17 59 -23 81 -16 59 -65
162 -110 229 -105 156 -297 296 -502 363 -131 44 -223 63 -303 63 -196 0 -313
91 -432 335 -80 164 -120 286 -120 365 0 56 -6 75 -55 174 -100 202 -174 315
-311 471 -214 244 -534 500 -783 627 -77 39 -104 48 -147 48 -49 0 -56 3 -108
51 -30 27 -115 115 -187 195 -117 129 -133 150 -140 192 -16 88 -93 127 -165
83z m86 -56 c7 -8 10 -25 6 -38 -3 -14 1 -33 11 -48 26 -39 140 -166 250 -280
57 -58 103 -109 103 -112 0 -4 -28 -20 -62 -37 -35 -16 -94 -53 -131 -81 -57
-43 -68 -56 -65 -78 5 -41 32 -37 95 15 66 53 164 103 240 122 71 18 117 4
278 -88 213 -121 541 -402 701 -600 131 -162 289 -428 309 -520 7 -34 -3 -150
-13 -150 -4 0 -19 26 -34 58 -107 223 -233 443 -327 569 -122 164 -439 463
-491 463 -20 0 -32 -23 -23 -45 3 -9 20 -26 38 -38 79 -54 254 -218 341 -320
135 -158 216 -287 355 -562 l121 -240 -22 -55 c-12 -30 -28 -69 -36 -86 l-15
-31 -127 -7 c-70 -4 -145 -8 -167 -9 l-40 -2 -6 50 c-17 145 -168 445 -333
660 -120 156 -308 350 -431 445 -54 41 -56 42 -75 25 -11 -10 -16 -23 -12 -30
4 -7 63 -62 132 -123 278 -244 502 -557 630 -877 29 -73 43 -144 32 -162 -4
-5 -34 -13 -67 -17 -33 -3 -84 -9 -113 -12 -66 -8 -118 7 -193 57 -65 44 -109
92 -109 120 0 23 -55 192 -96 295 -106 265 -287 516 -497 689 -51 43 -87 118
-87 182 0 85 -159 170 -420 223 -30 7 -71 16 -91 21 -20 5 -52 9 -72 9 -20 0
-39 5 -43 11 -5 9 19 10 87 5 360 -24 504 -18 553 23 46 39 58 125 31 228 -21
81 -57 151 -126 243 -61 83 -73 121 -41 139 24 14 38 13 52 -4z m-6 -874 c11
-12 16 -31 14 -52 l-3 -33 -69 3 c-124 5 -215 -9 -243 -35 -14 -13 -29 -24
-34 -24 -10 0 -39 29 -39 40 0 18 33 40 58 39 15 -1 52 8 82 21 58 24 174 58
201 59 9 1 24 -8 33 -18z m1806 -1148 c7 -16 16 -37 20 -48 46 -121 128 -263
189 -329 95 -101 172 -135 331 -147 167 -12 285 -43 430 -112 221 -105 391
-295 447 -502 38 -137 39 -151 22 -237 -39 -197 -71 -227 -150 -140 -91 99
-194 149 -369 177 -63 11 -184 14 -465 13 -396 -2 -433 1 -610 47 -405 105
-683 423 -823 943 -7 23 -17 60 -24 82 -6 22 -9 43 -6 45 3 3 38 -11 78 -32
65 -34 80 -38 144 -37 39 0 112 6 161 12 50 6 171 16 270 22 99 6 191 17 205
23 22 11 61 77 92 157 6 14 14 33 19 42 5 10 9 25 9 33 0 24 15 17 30 -12z"/>
</g>
</svg>
