<?xml version="1.0" standalone="no"?>
<!DOCTYPE svg PUBLIC "-//W3C//DTD SVG 20010904//EN"
 "http://www.w3.org/TR/2001/REC-SVG-20010904/DTD/svg10.dtd">
<svg version="1.0" xmlns="http://www.w3.org/2000/svg"
 width="881.000000pt" height="1026.000000pt" viewBox="0 0 881.000000 1026.000000"
 preserveAspectRatio="xMidYMid meet">
<metadata>
Created by potrace 1.15, written by Peter Selinger 2001-2017
</metadata>
<g transform="translate(0.000000,1026.000000) scale(0.100000,-0.100000)"
fill="#000000" stroke="none">
<path d="M1670 10238 c-5 -13 -16 -51 -25 -86 -19 -75 -10 -102 34 -102 39 0
49 15 68 103 19 87 11 107 -38 107 -21 0 -32 -7 -39 -22z"/>
<path d="M1236 10174 c-24 -24 -20 -43 27 -114 35 -54 47 -66 73 -68 24 -2 33
2 43 22 13 23 10 31 -33 100 -50 80 -76 95 -110 60z"/>
<path d="M1468 9991 c-67 -22 -147 -80 -183 -131 -53 -77 -69 -129 -70 -226 0
-85 2 -95 38 -167 31 -62 50 -87 95 -123 58 -45 156 -84 212 -84 46 0 70 -43
63 -113 -5 -53 -4 -58 26 -87 17 -17 31 -37 31 -43 0 -7 9 -26 19 -43 22 -36
78 -59 116 -50 38 10 266 155 303 192 23 24 32 43 32 66 0 33 -32 98 -48 98
-5 0 -14 17 -20 39 -14 46 -28 59 -82 75 -27 8 -47 22 -59 41 -17 29 -17 32 2
80 15 39 18 69 15 135 -6 151 -77 259 -215 326 -74 37 -191 43 -275 15z m212
-96 c65 -23 129 -81 156 -140 36 -79 40 -129 14 -200 -34 -96 -34 -101 -5
-151 26 -45 27 -48 10 -61 -10 -7 -19 -12 -21 -10 -1 1 -22 35 -47 75 -40 66
-44 77 -35 103 26 75 -27 150 -105 151 -56 1 -94 -22 -113 -69 -29 -67 15
-148 86 -159 35 -6 43 -13 83 -79 33 -53 42 -76 34 -84 -17 -17 -23 -14 -61
39 -35 49 -37 50 -89 50 -30 0 -69 5 -88 11 -59 20 -124 75 -155 131 -25 46
-29 63 -29 133 0 92 19 136 82 197 76 73 185 98 283 63z"/>
<path d="M1982 9959 c-58 -37 -63 -43 -60 -72 2 -24 10 -34 29 -41 22 -7 37
-2 98 37 54 36 71 52 71 70 0 59 -52 61 -138 6z"/>
<path d="M980 9810 c-15 -15 -19 -27 -14 -43 9 -29 14 -32 100 -51 88 -19 114
-11 114 33 0 37 -13 46 -80 60 -30 7 -64 14 -76 17 -15 4 -30 -2 -44 -16z"/>
<path d="M1103 9410 c-53 -34 -63 -45 -63 -68 0 -65 39 -67 131 -7 53 34 69
50 69 68 0 59 -52 61 -137 7z"/>
<path d="M2553 8800 c-222 -31 -423 -127 -582 -276 -193 -181 -302 -400 -331
-662 -32 -291 73 -602 276 -822 122 -131 300 -239 489 -297 85 -25 102 -27
280 -27 179 0 195 2 280 27 306 93 534 286 666 562 112 234 134 497 63 742
-107 371 -418 659 -796 738 -90 19 -263 27 -345 15z"/>
<path d="M7213 8518 c-25 -5 -55 -21 -72 -38 -31 -32 -61 -106 -61 -152 l0
-28 -229 0 -229 0 -6 43 c-10 67 -50 143 -85 161 -34 18 -126 21 -168 5 -60
-23 -112 -100 -113 -166 l0 -33 -70 0 c-93 0 -167 -28 -215 -82 -73 -80 -68
-8 -74 -1068 -7 -1328 -8 -1267 8 -1330 35 -140 97 -218 196 -246 54 -15 165
-16 1189 -16 621 1 1143 4 1160 8 55 12 106 43 136 85 49 68 53 110 42 454 -7
217 -6 513 3 990 14 763 10 955 -22 1025 -43 95 -128 152 -259 173 -62 10 -74
15 -74 31 0 67 -58 158 -116 182 -49 21 -123 18 -162 -6 -40 -25 -71 -90 -79
-166 l-6 -54 -202 0 c-265 0 -261 -1 -275 64 -27 130 -104 188 -217 164z
m-734 -164 c20 -57 19 -248 -2 -297 -20 -47 -42 -56 -69 -29 -16 15 -23 41
-30 113 -16 158 -1 243 47 252 33 7 39 2 54 -39z m814 5 c15 -28 18 -52 14
-144 -4 -116 -15 -155 -47 -155 -32 0 -50 41 -56 126 -10 126 18 222 61 211 6
-2 18 -19 28 -38z m831 8 c29 -39 29 -188 0 -262 -22 -57 -38 -62 -68 -22 -18
25 -20 40 -18 147 2 137 12 173 44 168 11 -2 30 -16 42 -31z m-1874 -235 c0
-128 52 -218 140 -242 126 -34 211 50 227 223 l6 57 227 0 227 0 6 -58 c10
-114 67 -174 171 -180 48 -2 68 1 93 17 40 25 71 85 84 159 l10 57 235 0 234
0 0 -36 c0 -73 44 -153 104 -190 43 -26 111 -25 153 4 41 27 90 121 99 189 l7
50 44 -6 c151 -20 193 -88 193 -311 l0 -103 -672 -2 c-829 -3 -833 -3 -1375 1
l-443 4 0 153 c0 166 10 208 55 238 24 16 91 31 143 33 l32 1 0 -58z m785
-506 c55 1 379 3 720 6 341 3 649 3 685 0 l65 -4 -2 -152 c-1 -83 -4 -498 -6
-923 -3 -586 -7 -779 -17 -802 -8 -21 -23 -34 -48 -42 -54 -18 -2239 -18
-2299 -1 -49 15 -73 44 -100 122 -21 64 -21 66 -13 1127 l5 672 80 4 c44 3
249 2 455 -2 206 -3 420 -5 475 -5z"/>
<path d="M6290 7370 c-19 -19 -20 -33 -20 -205 l0 -185 25 -16 c22 -15 45 -15
204 -7 111 6 185 14 194 21 11 9 16 53 21 180 8 181 2 215 -38 226 -11 3 -99
6 -193 6 -160 0 -175 -2 -193 -20z m297 -191 c-3 -44 -7 -82 -9 -84 -1 -1 -42
-6 -90 -10 l-88 -7 0 91 0 91 96 0 97 0 -6 -81z"/>
<path d="M6790 7370 c-19 -19 -20 -33 -20 -205 l0 -185 25 -16 c22 -15 45 -15
204 -7 111 6 185 14 194 21 11 9 16 53 22 178 7 179 1 217 -38 228 -12 3 -100
6 -194 6 -160 0 -175 -2 -193 -20z m300 -182 c0 -40 -4 -78 -8 -84 -4 -6 -46
-15 -94 -19 l-88 -7 0 91 0 91 95 0 95 0 0 -72z"/>
<path d="M7290 7370 c-19 -19 -20 -33 -20 -205 l0 -185 25 -16 c22 -15 45 -15
206 -7 132 7 183 13 194 24 10 10 15 62 20 190 10 235 26 219 -220 219 -172 0
-186 -1 -205 -20z m300 -195 l0 -85 -34 0 c-18 0 -61 -3 -95 -6 l-61 -7 0 92
0 91 95 0 95 0 0 -85z"/>
<path d="M7791 7361 c-20 -20 -21 -33 -21 -199 0 -239 -9 -227 164 -219 75 3
150 2 176 -4 53 -12 85 -6 95 18 3 10 9 99 11 198 5 150 3 183 -9 200 -14 19
-29 20 -206 23 -181 3 -191 2 -210 -17z m299 -196 l0 -85 -27 0 c-16 0 -58 -3
-95 -7 l-68 -6 0 92 0 91 95 0 95 0 0 -85z"/>
<path d="M6290 6860 c-19 -19 -20 -33 -20 -203 0 -169 2 -185 19 -201 18 -16
36 -17 198 -11 120 5 185 11 199 20 20 13 22 26 28 182 8 182 2 216 -38 227
-11 3 -99 6 -193 6 -160 0 -175 -2 -193 -20z m297 -191 c-3 -44 -7 -82 -9 -84
-1 -2 -42 -6 -90 -10 l-88 -7 0 91 0 91 96 0 97 0 -6 -81z"/>
<path d="M6790 6860 c-19 -19 -20 -33 -20 -203 0 -169 2 -185 19 -201 18 -16
37 -17 203 -11 135 6 187 11 199 22 13 11 18 46 24 179 7 179 1 217 -38 228
-12 3 -100 6 -194 6 -160 0 -175 -2 -193 -20z m300 -182 c0 -40 -4 -78 -8 -84
-4 -7 -46 -15 -94 -19 l-88 -7 0 91 0 91 95 0 95 0 0 -72z"/>
<path d="M7290 6860 c-19 -19 -20 -33 -20 -203 0 -169 2 -185 19 -201 18 -16
37 -17 206 -10 132 5 190 11 200 20 9 9 15 65 20 184 8 184 3 213 -39 224 -11
3 -99 6 -193 6 -160 0 -175 -2 -193 -20z m300 -195 l0 -85 -27 0 c-16 0 -58
-3 -95 -7 l-68 -6 0 92 0 91 95 0 95 0 0 -85z"/>
<path d="M7791 6851 c-20 -20 -21 -33 -21 -204 0 -235 -11 -222 172 -215 96 4
144 2 177 -8 39 -12 49 -11 68 2 13 8 23 20 23 27 11 265 10 374 -4 392 -13
19 -28 20 -205 23 -181 3 -191 2 -210 -17z m299 -195 l0 -83 -67 -6 c-38 -4
-80 -7 -95 -7 l-28 0 0 90 0 90 95 0 95 0 0 -84z"/>
<path d="M6290 6350 c-19 -19 -20 -33 -20 -203 0 -166 2 -186 19 -201 16 -14
39 -16 200 -11 100 2 190 9 200 14 16 9 19 30 25 184 8 186 2 220 -38 231 -11
3 -99 6 -193 6 -160 0 -175 -2 -193 -20z m297 -191 c-3 -44 -7 -82 -9 -84 -2
-2 -43 -7 -91 -11 l-87 -7 0 92 0 91 96 0 97 0 -6 -81z"/>
<path d="M6790 6350 c-19 -19 -20 -33 -20 -203 0 -166 2 -186 19 -201 16 -14
39 -16 200 -11 100 2 190 9 200 14 16 9 19 30 25 183 8 187 2 221 -38 232 -11
3 -99 6 -193 6 -160 0 -175 -2 -193 -20z m300 -182 c0 -40 -4 -78 -8 -85 -4
-6 -46 -15 -95 -19 l-87 -7 0 92 0 91 95 0 95 0 0 -72z"/>
<path d="M7290 6350 c-19 -19 -20 -33 -20 -203 0 -166 2 -186 19 -201 16 -14
39 -16 200 -11 100 2 190 9 200 15 17 8 20 28 26 186 8 188 3 217 -39 228 -11
3 -99 6 -193 6 -160 0 -175 -2 -193 -20z m300 -194 l0 -83 -67 -6 c-38 -4 -80
-7 -95 -7 l-28 0 0 90 0 90 95 0 95 0 0 -84z"/>
<path d="M2065 6500 c-183 -42 -350 -132 -493 -265 -131 -122 -227 -266 -300
-450 -148 -374 -250 -748 -299 -1090 -25 -179 -25 -797 0 -1017 21 -193 37
-250 104 -388 49 -102 65 -125 142 -201 72 -72 101 -94 181 -132 112 -55 224
-83 375 -97 61 -5 413 -11 783 -14 371 -2 676 -7 679 -10 6 -5 -18 -127 -38
-202 l-10 -34 -1389 0 -1390 0 0 1710 0 1710 -205 0 -205 0 0 -3010 0 -3010
203 2 202 3 3 223 2 222 1155 0 1155 0 0 -225 0 -225 205 0 205 0 0 239 0 240
55 -19 c167 -57 347 -24 503 91 l52 40 -2 1565 -3 1565 -140 53 c-77 29 -172
67 -212 84 l-71 32 -259 0 c-142 0 -308 3 -370 7 l-112 6 5 86 c3 47 12 144
20 215 l14 129 -139 134 c-326 312 -566 682 -697 1073 -35 105 -38 124 -39
225 0 103 2 114 32 178 125 264 437 345 671 173 80 -59 133 -141 172 -268 18
-57 49 -140 70 -186 46 -99 140 -256 148 -248 3 4 21 66 40 139 32 121 35 144
35 277 0 117 -4 160 -21 225 -36 131 -84 218 -171 305 -81 82 -143 118 -246
145 -84 21 -296 19 -400 -5z m655 -5095 l0 -675 -1155 0 -1155 0 0 675 0 675
1155 0 1155 0 0 -675z"/>
<path d="M2082 6105 c-107 -30 -177 -85 -225 -179 -25 -50 -31 -76 -35 -146
-4 -80 -1 -94 42 -225 79 -240 227 -510 404 -739 192 -248 476 -499 757 -668
122 -74 259 -148 274 -148 8 0 11 87 11 325 l0 325 133 0 c132 0 132 0 102 18
-16 10 -75 45 -130 78 -416 246 -767 667 -886 1066 -30 101 -60 156 -111 205
-86 84 -223 120 -336 88z"/>
<path d="M4210 4935 l0 -155 1080 0 1080 0 0 155 0 155 -1080 0 -1080 0 0
-155z"/>
<path d="M3400 4290 l0 -270 215 0 215 0 0 -2000 0 -2000 320 0 320 0 0 1635
0 1635 1635 0 1635 0 0 -1635 0 -1635 315 0 315 0 0 2000 0 2000 220 0 220 0
0 270 0 270 -2705 0 -2705 0 0 -270z"/>
<path d="M3480 3921 c0 -9 181 -83 235 -97 24 -6 25 -5 25 50 l0 56 -130 0
c-73 0 -130 -4 -130 -9z"/>
</g>
</svg>
