<svg version="1" xmlns="http://www.w3.org/2000/svg" width="1750.667" height="1750.667" viewBox="0 0 1313.000000 1313.000000"><path d="M1133.5 258.2c-5.3 6.2-6.8 9.6-7.1 16-.2 3.2-.8 6.6-1.4 7.7-.9 1.8-9.5 12.6-12.5 15.7-.5.6-3.9 4.4-7.5 8.4-12.6 14.2-21.6 23.7-40 42.1-20.5 20.6-18.8 19.5-34.5 21.4-12.5 1.5-16.2 2.7-30 9.7-12.4 6.3-25.4 14.2-43.9 26.5-14.7 9.9-38.8 27.4-45.3 33-1.1 1-4.1 3.4-6.4 5.3-6.4 5.1-18.2 15.1-20 16.9-.9.9-4.9 4.5-8.9 8.1-13.2 11.8-29.8 28.7-47.5 48.4-3.3 3.7-9.2 10.9-13.9 17.2-2.5 3.2-5.1 6.6-5.8 7.4-1.7 1.9-4.9 6.5-12.5 18-3.4 5.2-6.6 10-7 10.6-1.5 2-3.3 4.9-4.3 6.9-.5 1.1-2.5 4.5-4.4 7.5-2 3-4.7 8-6.2 11s-3 5.7-3.4 6c-1 .8-9.3 17.5-14.8 29.6l-5 11.1-.5 14.4c-.6 14.5-1.2 18.3-3 20.6-.5.7-.7 1.3-.4 1.3.5 0-3.8 12.6-6 18-.3.8-.7 1.7-.8 2-.1.3-.5 1.4-1 2.5-.4 1.1-2.1 5.4-3.7 9.5-5 12.9-17.6 39.3-19 39.8-.4.2-.8.8-.8 1.4 0 .6-1.3 3-3 5.5-1.6 2.4-3 4.8-3 5.4 0 .5-.4.9-1 .9-.5 0-1 .6-1 1.4 0 .8-.4 1.6-.8 1.8-.4.1-2.3 2.4-4.2 5-1.8 2.7-3.7 4.8-4.2 4.8-.4 0-.8.4-.8.9 0 2.8-17.7 17.5-22.4 18.7-1.4.3-2.6 1-2.6 1.4 0 .6-1.7 1.1-6.5 2-.2.1-1.9.5-3.6 1-1.8.5-7.9 1.2-13.8 1.5-15.3.8-21 1.3-21.8 1.8-.5.3-3.5.8-6.8 1.1-3.3.4-7.3 1.1-9 1.6-1.6.5-4.1 1.1-5.5 1.4-15.3 2.7-44.8 12.8-65 22.4-4.1 1.9-7.8 3.5-8.2 3.4-.5-.1-.8.2-.8.8 0 .5-.5 1-1 1-1.1 0-17.1 8.9-18 10-.3.4-1.2 1-2 1.3-.8.4-2.8 1.6-4.5 2.6-1.6 1.1-3.4 2-3.8 2-.4.1-3.5-5.6-6.8-12.7-3.4-7-8.6-17.9-11.6-24.2-3.1-6.3-7.9-16.5-10.8-22.5-2.9-6.1-8.5-17.8-12.5-26-4-8.3-8.7-18.2-10.5-22-1.8-3.9-6.5-13.8-10.5-22-4-8.3-9.4-19.5-12-25-2.6-5.5-7.4-15.6-10.7-22.5-3.4-6.9-8.2-17-10.8-22.5-8-16.9-24-50.5-29.8-62.5-2.3-4.7-4.2-8.7-4.2-9-.1-.3-1.9-4.1-4-8.5-2.2-4.4-4-8.2-4-8.5-.1-.3-3-6.4-6.4-13.5-15.7-32.1-20.8-43.1-20.9-44.9 0-.5-.4-1.2-.9-1.5-.4-.3-1.9-2.8-3.3-5.6-2.3-4.5-3-5.1-7.9-6.6-5.3-1.6-16.1-1.8-24.7-.5-7 1-16.5 4.4-27.9 10-11.1 5.5-31.7 18-32.3 19.7-.2.5-.8.9-1.3.9-.9 0-6.5 3.6-7.9 5-.3.3-2.6 2.1-5.3 4-2.6 1.9-6 4.5-7.5 5.8-1.5 1.3-4 3.3-5.5 4.5-1.5 1.2-3.8 3.1-5.1 4.2-1.3 1.1-4.9 4.2-8.1 7-5.4 4.6-16 14.5-29.4 27.4-3.1 2.9-9.8 9.2-15 14-5.2 4.7-10.3 9.4-11.3 10.3-1 1-2 1.8-2.3 1.8-.3 0-1.3.8-2.3 1.8-7.7 7.3-36.5 28.2-39 28.2-.6 0-1.2.4-1.4.8-.8 1.9-20.2 11.8-33.3 17-12.5 5-18.7 5.9-39 5.6-9.9-.2-19.9-.5-22.3-.8-4.7-.4-5.1.1-2.2 3.2 1.1 1.2 2 2.4 2 2.6 0 .7 15.7 21.5 17.7 23.4.7.7 1.3 1.6 1.3 2 0 .4 1.4 2.3 3 4.2 3.6 4.2 3 3.4 11 14 3.6 4.7 6.7 8.7 7 9 .3.3 1.9 2.3 3.5 4.5s3.5 4.7 4.2 5.5c.7.8 4.2 5.3 7.8 10 3.6 4.7 7.1 9.2 7.8 10 .7.8 2.8 3.5 4.7 6 1.9 2.5 4 5.2 4.7 6 3.3 4.1 11.1 14 13.3 16.9 1.4 1.8 3 3.8 3.5 4.4.9 1 3 3.7 11.3 14.4.9 1.3 2.6 3.4 3.7 4.7 1.1 1.3 3.1 3.9 4.5 5.7 1.4 1.8 3 3.7 3.5 4.3.6.6 4.6 5.6 9 11.1 11.3 14.2 12.7 15.4 20.5 17.5 3.5.9 14.9 2.2 19.5 2.2 5.4-.1 20-1.7 20-2.2 0-.1 1-.3 2.3-.6 5-.9 22.8-8.9 33-14.9 3-1.7 17.6-12.2 19.7-14.2 1.1-1 4.2-3.5 6.8-5.7 4.5-3.6 16.4-14.7 31.7-29.6 17.4-17 33.9-30.7 43.3-35.9 5-2.8 14.1-7.5 14.7-7.6.3-.1 2.1-.8 4-1.7 15.6-6.8 37.4-10.1 49-7.4 1.4.3 4.8 1.1 7.5 1.7 5.9 1.4 12.5 4.5 14.2 6.8 1.4 1.8 33.6 66.5 33.9 68.1 0 .3 2.7 5.9 5.9 12.5 3.3 6.6 5.8 12.3 5.7 12.7-.1.5.2.8.8.8.5 0 1 .5 1 1.1 0 .5 2.3 5.8 5.1 11.7 2.8 5.9 6.4 13.6 8.1 17.2 1.6 3.6 3.4 7.2 3.9 8 .5.8 1.4 2.6 1.9 4 .6 1.4 1.4 3.3 2 4.2.7 1.3 0 2.7-3.6 6.5-8.6 9.1-20 23.7-24 30.8-8.2 14.3-14.9 28.3-17 35-7.9 25.5-8.7 29.8-8.5 46 .2 20.9 3 35.8 9.4 51 6.7 15.8 13.1 20.5 28.4 20.5 13.1 0 15-1.1 28.6-16.3 14.2-15.8 33.4-25.8 61.7-31.9 8.3-1.7 15.1-1.9 94-2.3 74-.4 90.1-.7 98.8-2 2.1-.3 5.7-.7 8.2-1 2.5-.3 5.6-.8 7-1 1.4-.2 4.1-.7 6-1 11.4-1.9 34.4-8 48.8-12.9 22-7.5 51.2-23.3 65.8-35.5 1.7-1.4 5.2-4.4 7.9-6.6 14.7-12 31.4-30.9 44.7-50.5 9.2-13.7 12.6-19.5 21.3-37 6.7-13.3 10.5-21.5 10.5-22.5 0-.3.8-2.5 1.9-4.8 3.5-8.1 12-32.2 13.6-39.2.3-1.1 1.8-7 3.5-13 2.4-8.9 7.3-30.3 10.4-45.5.3-1.4.8-3.6 1.1-5 .3-1.4.8-3.6 1.1-5 .3-1.4 1-4.3 1.6-6.5.7-2.2 1.2-4.2 1.2-4.5.1-.7 1.8-6.1 6.8-22 2.3-7.4 4.3-13.7 4.3-14 .1-.3 1-2.3 1.9-4.4 1-2.2 2-4.7 2.2-5.5 1-4.3 3-9.1 3.6-9.1.5 0 .8-.6.8-1.4 0-.7 1.2-4 2.6-7.2 3.4-7.9 16.6-34.8 17.4-35.4.3-.3 1.1-1.6 1.7-3 4.4-9.1 25-40.9 28.5-44.1 1-.9 1.8-1.9 1.8-2.3 0-.4.5-1.2 1-1.9.6-.7 1.8-2.2 2.8-3.3 13.3-16.4 28.6-31.6 45.6-45.5 6.1-5 14.2-13.9 17.1-18.8 4.2-7.1 5.2-7.4 26.5-7.4 23.4-.1 30.2 1.2 36.1 6.7 5.2 4.9 9.7 6.4 19.6 7 11.6.7 24.7-9.9 25.9-20.9.4-3.4-.1-5.8-1.9-9.8-4.6-10-11.1-14.5-21.7-15.2-3.8-.2-15.6-3.9-19.9-6.1-1.4-.8-3.1-1.4-3.8-1.4-.6 0-2.4-.5-4-1.2-1.5-.6-3-1.2-3.3-1.3-.3-.1-3.1-.9-6.2-1.9-3.2-1-5.8-2.1-5.8-2.5 0-.9 25.1-8.5 35-10.6.8-.2 4.9-1.1 9-2 9.8-2.2 20.1-4.3 24.8-5 2.1-.3 4.9-.8 6.2-1 6.4-1.4 15.6-2.1 24.1-2 15.5.3 24.4-3.3 29.4-11.8 2.2-3.9 2.5-5.3 2.1-11.4-.4-7.7-1.5-10.5-5.6-14.4-5.1-4.7-9.8-6.3-19-6.3-9 0-11.3.8-19.7 6.7-4.1 2.9-6.6 3.6-14.3 4.2-2.5.2-7.6.6-11.5.9-26.2 2.2-41.4 2.9-64.5 3-35.4 0-37.9-.4-40-7-2.5-7.4-1.5-26 1.8-36.9 2.9-9.1 11.1-25.4 14.9-29.3.7-.7 1.3-1.7 1.3-2.2 0-.5.6-1.5 1.3-2.2.7-.7 3.2-4 5.5-7.3s5.5-7.8 7.1-10c13.3-18.1 14.3-30.6 3-39.7-4.8-3.9-9-4.7-23.6-4.8h-12.1l-3.7 4.2zm22.3 13.8c1.7 1.1 3.2 2.8 3.2 3.8 0 1.7-3.6 9.2-4.9 10.2-1 .8-15.3 21-18 25.5-1.4 2.2-2.8 4.1-3.3 4.3-.4.2-.8.8-.8 1.3s-1.2 2.8-2.7 5.2c-1.4 2.3-2.6 4.3-2.5 4.4.1.2-.9 2.7-2.3 5.5-4.3 9.5-7.6 21.4-7.9 28.5 0 2.4-.3 4.3-.6 4.3-1.6 0 .4 23.6 2.2 25.7.6.7.8 1.3.4 1.3-1 0 3 7.4 5 9.1 2.5 2.2 7.1 4.5 12.9 6.5 5.3 1.8 16.1 2.5 36 2.4 1.1 0 6.7-.1 12.5-.1 12.3-.1 33.9-.7 42.5-1.3 20.1-1.4 27.9-1.6 26.5-.8-.8.6-3.5 1.2-6 1.5-2.5.3-6.5 1-9 1.6-2.5.5-6.1 1.3-8 1.6-3.1.5-24.8 5.2-27.5 5.9-.5.2-2.3.6-4 1-1.6.5-6.1 1.7-10 2.9-3.8 1.1-7.2 2.1-7.5 2.2-.4.1-8.6 2.6-10 3-1.2.4-5.1 2-13.2 5.5-10.4 4.5-21.7 11.8-25.7 16.7-2.7 3.2-5.2 10.2-5.7 15.8-1.3 15.3-7.7 28.8-17.1 36.5-3.1 2.5-6.1 4.9-6.7 5.5-.6.5-4.1 3.5-7.6 6.5-10.4 8.8-23.9 22.8-33.3 34.4-1.7 2.2-4 4.8-4.9 5.8-1 1-1.8 2-1.8 2.3 0 .3-.4 1.1-1 1.8-9.1 11.2-24.6 35.2-33 51.3-2.2 4.3-4.4 8.2-4.8 8.8-2.2 3-20.8 45.6-21.7 49.6-.2.8-.4 1.6-.5 1.7-.2.2-.3.6-.5 1-.1.5-.5 1.5-.8 2.3-1.5 3.4-13.2 40.8-14.2 45-.6 2.9-4 9.4-6 11.5-7 7.2-22.1 16.8-30.8 19.6-6.7 2.1-16.9 2.6-29.2 1.4-4.4-.4-9.3-.8-11-1-2.8-.3-10.9-1.3-14.6-1.8-2.7-.4-4.9-2.8-4.8-5.1 0-1.1.9-5.3 2-9.1 1-3.9 2.1-7.7 2.3-8.5 2.8-10.2 13.4-34.9 22.1-51.5 10.2-19.4 26.7-46.2 36.7-59.5 18.8-25 29.4-38.2 39.7-49.5 7.1-7.8 35.2-35.5 41.6-41 3.2-2.8 7.9-6.8 10.5-9 2.5-2.2 7.2-6.2 10.4-9 6.2-5.3 8.7-9 8.1-12.1-.2-1-.4-2.2-.4-2.6-.2-1.6-5.8-3.5-10.1-3.6-3.9 0-11.9 3.3-14 5.7-.3.3-2.7 2.4-5.5 4.6-2.7 2.2-5.5 4.4-6.1 5-.6.5-4 3.5-7.5 6.5-8 7-21.8 20-27.8 26.3-2.5 2.7-7.1 7.5-10.1 10.6-3 3.2-8 8.7-11 12.2s-6.5 7.4-7.7 8.7c-1.3 1.2-2.3 2.5-2.3 2.8 0 .3-.6 1.1-1.2 1.8-3.7 3.8-19.6 24.2-25.8 33.1-1.9 2.7-3.7 5.2-4 5.5-1.4 1.3-14.5 21.8-20.5 32-5.6 9.4-22.7 42.2-23.1 44 0 .3-.5 1.6-1.1 3-.6 1.4-1.1 2.8-1.2 3.3 0 .4-.7 2-1.6 3.6-3.1 6.2-9.4 24.9-11 33.2-.8 4.1-1.7 9.6-1.8 11.4-.2 2.2 1.1 2.2-20.2 1-7.1-.4-18.2-.9-24.5-1-6.3-.2-11.7-.4-12-.5-.3-.1-2.2-.1-4.2 0-3.4.1-3.9-.2-5.7-3.9-1.2-2.2-3-6.3-4.1-9.2-1.2-2.9-2.9-7.1-3.9-9.3-1-2.3-2.6-6.2-3.6-8.8l-1.7-4.7 10.8-21.8c6-12 11.2-22 11.7-22.1.4-.2.7-1.1.7-2.1 0-.9.4-2.1.9-2.7.4-.5 4.7-8.3 9.4-17.4 11.8-23 14.7-28.3 15.9-29.7.6-.7.7-1.3.2-1.3-.5 0-.4-.4.2-.8.5-.4 2.7-3.9 4.9-7.7 2.1-3.9 5.8-10.1 8.2-13.8 2.3-3.7 4.3-7 4.3-7.2 0-.5 12-17.6 13-18.5.3-.3 2.5-3.2 5-6.5 2.4-3.3 4.9-6.5 5.5-7.1.5-.6 2.8-3.3 5-6 13.8-16.8 37-40.4 55.5-56.4 4.1-3.6 7.7-6.8 8-7.1.3-.3 4.3-3.6 9-7.4 4.7-3.7 8.7-7.2 8.8-7.7.2-.4.8-.8 1.3-.8 1.9 0 6.9-6.6 7.5-9.9 1-4.9-2.1-7-10.2-7.1-7.7 0-9.9 1.3-30.8 18.3-2.1 1.8-4.4 3.7-5 4.2-.6.6-4.7 4.2-9.1 8-13.8 12.1-39.4 38.3-50.7 52-3.2 4-5.2 6.3-7.4 8.8-5.9 6.8-25.4 34.7-25.4 36.5 0 .6-.4 1.2-.8 1.4-1.4.6-21.2 35.1-25.7 44.8-.9 1.9-1.9 3.7-2.3 4-.4.3-3.4 5.9-6.7 12.5-3.3 6.6-7.4 14.6-9.2 17.8-1.8 3.3-3.3 6.5-3.3 7.3 0 .8-.4 1.4-1 1.4-.5 0-1.2 1.1-1.6 2.4-.3 1.4-1.4 3.2-2.4 4.1-1.6 1.5-1.8 1.4-2.3-.7-.9-3.5-.1-14.7 1.3-19.8.8-2.5 1.5-5.1 1.6-5.8.3-1.8 14.4-30.3 15.6-31.6.9-1 7.3-12.1 10.7-18.5 1.5-2.8 13-20.7 16.2-25.3 1-1.5 1.9-3 1.9-3.2 0-.3.6-1.4 1.4-2.3.8-1 4.1-5.4 7.4-9.8 3.3-4.4 6.8-9 7.8-10.1 1-1.2 3-3.6 4.4-5.4 3.1-4.1 3.9-5 13.6-15.7 15.3-16.8 39.7-40.3 55.4-53.3 2.4-1.9 5.2-4.3 6.4-5.3 4.7-4.2 10.4-8.8 16.1-13.1 3.3-2.5 6.5-4.9 7-5.4 2.1-1.6 10.4-7.8 12.5-9.2 1.2-.8 2.8-2 3.4-2.5.6-.6 3.1-2.3 5.6-4 2.5-1.6 4.7-3.2 5-3.5 1.1-1.2 23.2-15 24-15 .4 0 1-.4 1.2-.8.5-1.4 24.8-14.8 24.8-13.7 0 .3 1-.1 2.3-.9 5.8-3.8 26.9-6.3 30.2-3.6.6.5 1.4.7 1.7.5.6-.6 8.5 2.3 14.8 5.3 1.9.9 3.8 1.5 4.3 1.4.4-.1.7.3.7.8s.3.9.8.8c.8-.2 7.4 3.1 8.2 4.1.3.4 1.6 1.2 3 1.9 2.7 1.3 5.4 3 7.9 4.9 15.8 12.1 21.2 15.3 25.9 15.3 9.4 0 13-8.5 6.6-15.5-3.2-3.4-12.1-10.5-13.3-10.5-.6 0-1.1-.3-1.1-.8 0-.4-1.7-1.6-3.7-2.7s-4.1-2.5-4.7-3.1c-1.8-1.7-15.1-9.4-16.4-9.4-.7 0-1.2-.3-1.2-.8 0-.4-2.9-2-6.5-3.6s-6.4-3.3-6.3-3.7c.3-.8 13.5-15.2 22.4-24.5 5.5-5.6 23.6-24.8 31.9-33.9 7.7-8.4 22.7-26.4 22.5-27.1-.1-.4.4-1 1.1-1.5 1-.6 1.3-3 1.1-8.3-.2-8.5.2-8.9 5.6-5.6zm13.7 187.5c14.8 4.4 21.9 7 32.3 11.5 3.5 1.6 7.3 2.4 11.7 2.5 5.7.1 6.8.5 9.5 3 3.5 3.4 3.7 4.8 1 7.5-2.2 2.2-5 2.7-5 .9 0-2.6-5-5.7-11.2-6.8-10.3-1.9-14.3-2.2-37.2-2.6-12-.2-22-.6-22.2-.8-.2-.2-.1-3.1.2-6.5.6-5 1.3-6.9 3.7-9.6 2.6-2.8 3.4-3.3 5.6-2.6 1.4.4 6.7 2 11.6 3.5zm-907.9 98.8c4.1 7 7.6 13.8 8 15.1.5 2.1-.4 3-9.6 8.5-5.5 3.3-10.5 6.1-11 6.1-.6 0-1 .4-1 1 0 .5-.4 1-.9 1s-7.4 3.8-15.2 8.5c-7.9 4.7-14.6 8.5-15 8.5-.4 0-2.5-3-4.7-6.8-6.9-11.6-8.2-14.4-7.2-16.1.9-1.7 5-5.4 18-16.1 10.7-8.8 10.9-9 17.5-14 3.3-2.5 6.2-4.7 6.5-5 1.4-1.5 5.6-3.9 6.4-3.6.5.1 4.2 5.9 8.2 12.9zM328 551c0 .9 1.2 3.5 8.7 19.9 3.4 7.2 5.5 12.1 5.8 13.1 0 .3.7 1.6 1.4 2.8.7 1.3 1 2.6.7 2.9-.9.9-4.9 3.2-6.8 3.9-1 .3-1.8 1-1.8 1.5s-.4.9-.8.9c-.5 0-5 2.5-10 5.5s-9.7 5.6-10.4 5.7c-.7.2-1.5.6-1.8.9-1.3 1.4-10.8 6.2-13.2 6.5-2.6.5-4.4-1.4-6.4-6.9-.3-.9-1-1.7-1.5-1.7s-.9-.4-.9-.9c0-.4-2.9-5.9-6.5-12-3.6-6.2-6.5-11.7-6.5-12.2 0-.6.6-1.6 1.3-2.2 1.2-1.3 22.9-14.9 28.2-17.8 1.7-.9 6.6-3.8 11-6.3 8.4-4.8 9.5-5.2 9.5-3.6zm-103.3 78.6c3.9 6.5 7.7 13 8.4 14.4.7 1.4 1.8 3.2 2.5 4 .6.8 1.5 2.9 1.8 4.6.6 2.5.3 3.3-1.1 3.8-1 .3-3.8 1.9-6.3 3.6-2.5 1.6-5.1 3.3-5.9 3.7-.8.3-5.8 3.1-11 6.1-13.8 7.8-27.7 15.2-28.7 15.2-.8 0-3.9-4.6-8-11.5-13.5-23.3-13.6-23.5-12.2-24.7 3.3-3.1 40.8-25.8 42.7-25.8.6 0 1.1-.5 1.1-1 0-.6.6-1 1.3-1 .6 0 2.3-.9 3.7-2 1.4-1.1 3-1.8 3.5-1.7.6.2 4.2 5.7 8.2 12.3zm79.7 2.7c2.1 3.4 4.7 7.4 5.7 8.9 1.1 1.5 1.9 2.9 1.9 3.2 0 .3 2.3 4.3 5 9 2.8 4.7 5 8.7 5 9 0 .2-4.8 3.2-10.7 6.7-6 3.4-13.5 7.8-16.8 9.7-3.3 1.9-7.6 4.3-9.5 5.4-1.9 1-4.4 2.4-5.5 3.1-6.3 3.9-9.6 5.7-10.9 5.7-1.2 0-4.9-5.2-15.5-22.1-2.2-3.6-4.1-7.1-4.1-7.7 0-.6-.4-1.2-.9-1.4-.4-.2-1.1-1.2-1.5-2.3-.5-1.7.6-2.9 6.1-6.5 7.8-5.2 17.3-11 18-11 .2 0 .9-.5 1.6-1.1 2.4-2.1 25.2-14.8 26.7-14.8.8-.1 3.3 2.7 5.4 6.2zm-149.9 8.3c3.2 6.6 5.3 4.5-18.5 18.7-30.2 18-31.6 18.8-33.3 18.1-.8-.3-2.3-2.1-3.2-4-2-4.2-1.4-5.1 5.3-9 5.2-2.9 26-16.3 27.9-17.9.6-.6 3.5-2.6 6.3-4.5s6.2-4.5 7.7-5.7c1.4-1.1 3.2-1.9 3.9-1.6.7.2 2.4 2.9 3.9 5.9zm219.3 13.7c2.7 5.6 6 12.4 7.2 15.2 6.5 14.4 10 22.8 9.8 23-.2.2-6.6.5-14.3.8-13.6.6-15.6.8-22 2.2-10 2.1-9.8 2.2-12.5-3.4-1.4-2.8-2.8-5.1-3.2-5.1-.5 0-.8-.4-.8-1 0-.5-2-4.2-4.4-8.2-6.8-11.4-6.9-11 1.6-15.9 4-2.4 7.5-4.6 7.8-4.9.3-.4 2-1.3 3.8-2.1 1.7-.8 3.2-1.7 3.2-2 0-.4 1.5-1.2 3.3-2 1.7-.7 3.4-1.6 3.7-1.9 1-1.2 10.5-5.7 11.2-5.3.4.2 2.9 5 5.6 10.6zm-268.5 36.4c1.3 2.1 3.2 5.4 4.3 7.3 1 1.9 2.1 3.7 2.4 4 .3.3 3.6 5.8 7.3 12.3 6.5 11.2 6.7 12 5 13.3-1 .7-2.2 1.4-2.6 1.4-.5 0-3.2 1.5-6 3.3-2.9 1.9-7.8 4.8-11 6.6l-5.8 3.2-3.7-3.8c-6.4-6.6-24.2-30.1-24.2-31.8 0-.6 3-2.8 6.6-5 3.6-2.2 8.6-5.3 11.2-6.9 6.5-4 12.6-7.4 13.4-7.5.4-.1 1.8 1.6 3.1 3.6zm85 12.5c1.8 2.9 4.7 7.5 6.3 10.3 1.6 2.7 3.7 6.3 4.7 8 1 1.6 2.3 4.2 3 5.7.6 1.6 1.5 2.8 1.9 2.8.4 0 .8 1.3.8 3 0 2.3-.5 3.1-2.5 3.6-1.4.3-2.5 1-2.5 1.5s-.7.9-1.5.9-1.5.3-1.5.7c0 .5-1 1.3-2.3 1.9-1.2.6-7.6 4.2-14.2 8.1-16.1 9.4-27.3 15.3-28.8 15.3-1.1 0-9.1-12.5-10.6-16.5-.2-.5-1.2-2.1-2.1-3.5-2.9-4.2-8-14.1-8-15.4 0-.6 2.2-2.5 5-4.1 2.7-1.7 5-3.3 5-3.8 0-.4.4-.7.9-.7 1.3 0 13.5-7.3 13.9-8.2.2-.5.7-.8 1.2-.8.7 0 7.6-3.7 21-11.4 2.5-1.4 5-2.5 5.7-2.6.6 0 2.7 2.4 4.6 5.2zm78.8 4.5c.8 1 4.4 6.7 8.1 12.7l6.7 10.8-7.2 6.8c-4 3.8-11.5 11-16.8 16.2-16.4 15.9-21.8 20.8-23.2 20.8-.7 0-3.7-4.1-6.7-9.1-3-5.1-6.5-10.8-7.7-12.8-9.7-16-9.7-15.8-3.2-19.6 2.8-1.7 6.2-3.7 7.4-4.5 2-1.3 10.6-6.5 15.7-9.5 1-.6 5.7-3.4 10.6-6.3 4.9-2.8 9.5-5.2 10.1-5.2.6 0 1.1-.5 1.1-1 0-1.6 3.4-1.1 5.1.7zm497.4 15c8.1 19.7 13.4 30.6 15.8 32.2 3.4 2.5 12 3.7 28.2 4 8.3.2 17 .4 19.5.6 2.5.2 7.7.6 11.6.9 3.9.3 8.4.7 10 1 1.6.2 6.3.7 10.4 1.1 4.1.4 8.9.9 10.5 1.1 10.1 1.2 18.1 2.1 26.9 2.9 3.8.3 8.7.8 11 1.1 12 1.6 33.4.8 38.6-1.3.8-.3 1.7-.7 2-.8 2.7-.7 6.6-2.3 12.5-5.1 3.9-1.9 7.1-2.9 7.3-2.4.5 1.3-9 34.8-14 49.5-4.9 14.4-13.6 36.2-17.8 44.5-1.7 3.3-3.1 6.3-3.2 6.7-.7 3.1-19.9 34.5-24.8 40.6-.5.7-3.3 4.1-6.1 7.7-6.8 8.6-23.6 25.2-32.4 32.1-8.2 6.4-21 14.9-22.5 14.9-.5 0-1 .4-1 .8 0 .8-22.7 12.1-25.3 12.6-.7.2-3.3 1.2-5.9 2.4-3.8 1.7-11.6 4.3-20.3 6.8-3.7 1.1-25.6 6.3-28 6.7-1.6.3-5.9 1-9.5 1.6-3.6.6-9 1.3-12 1.7-3 .3-6.6.8-8 1-10.6 1.9-53.7 2.3-128.5 1.3-24.5-.3-38.5.2-47.5 1.6-1.4.2-4.4.7-6.7 1-3.4.5-10.3 2.2-20.3 4.9-7.5 2-28.6 11-30 12.7-.3.3-2.1 1.4-4 2.4-3.2 1.7-8.8 5.3-10 6.5-.3.3-2.3 1.8-4.5 3.5-2.2 1.6-7.1 6-10.8 9.8-3.8 3.8-7.7 7-8.8 7.2-2.6.5-5.4-2.7-7.9-9.4-1.2-3.1-2.6-6.5-3-7.6-.5-1.1-1.1-3.1-1.4-4.5-.3-1.4-1.5-6.6-2.6-11.5-4.5-20.3-4.5-25.3.5-48.5 3.2-14.6 14.7-40.3 22.7-50.5.5-.6 2.7-3.5 5-6.5 12.7-16.6 33.4-34.2 54.8-46.7 7.5-4.4 28-14.3 29.6-14.3.3 0 2-.6 3.7-1.4 2.6-1.2 9.2-3.5 11.7-4.1.3-.1 1.2-.5 2-.8 1.7-.7 15.7-4.6 19.2-5.3 2.7-.5 5.4-1.1 8.8-1.9 1.4-.3 3.9-.7 5.6-.9 1.6-.2 3.9-.6 5-.9 1.8-.5 11.5-1.6 19.9-2.2 11.3-.9 18.2-1.5 20.1-1.9 1.2-.2 3.7-.7 5.5-1 21.2-3.4 43.5-20.3 60.5-45.9 3-4.5 5.7-8.7 6.1-9.3 2.2-3 13.2-24.6 17-33.4 5.4-12.3 8.7-19 9.3-19 .4 0 2.9 5.3 5.5 11.7zm-604.8 64.5c7.5 12.7 14.5 25.9 14 26.5-.7.6-8.7.6-14.9 0-7.2-.7-9.8-2.5-17-11.5-8.2-10.4-10.4-15.2-6.8-15.2.9 0 7.3-3.9 9.7-6 .7-.5 1.9-1 2.8-1 .8 0 1.5-.4 1.5-.9 0-.8 1.2-1.4 4.1-2 .3 0 3.2 4.5 6.6 10.1z"/></svg>